<?xml version="1.0" encoding="utf-8"?>
<!-- Generator: Adobe Illustrator 17.1.0, SVG Export Plug-In . SVG Version: 6.00 Build 0)  -->
<!DOCTYPE svg PUBLIC "-//W3C//DTD SVG 1.1//EN" "http://www.w3.org/Graphics/SVG/1.1/DTD/svg11.dtd">
<svg version="1.1" id="Layer_1" xmlns="http://www.w3.org/2000/svg" xmlns:xlink="http://www.w3.org/1999/xlink" x="0px" y="0px"
	 viewBox="44 349 529 99" enable-background="new 44 349 529 99" xml:space="preserve">
<g>
	<g>
		<g>
			<defs>
				<rect id="SVGID_1_" y="327.5" width="612" height="137.1"/>
			</defs>
			<clipPath id="SVGID_2_">
				<use xlink:href="#SVGID_1_"  overflow="visible"/>
			</clipPath>
			<polygon clip-path="url(#SVGID_2_)" fill="#FFFFFF" points="0,327.5 612,327.5 612,464.5 0,464.5 			"/>
		</g>
		<g>
			<defs>
				<rect id="SVGID_3_" y="327.5" width="612" height="137.1"/>
			</defs>
			<clipPath id="SVGID_4_">
				<use xlink:href="#SVGID_3_"  overflow="visible"/>
			</clipPath>
			<polygon clip-path="url(#SVGID_4_)" fill="#E11837" points="104.2,418.3 112.6,420.9 120.4,395 			"/>
		</g>
		<g>
			<defs>
				<rect id="SVGID_5_" y="327.5" width="612" height="137.1"/>
			</defs>
			<clipPath id="SVGID_6_">
				<use xlink:href="#SVGID_5_"  overflow="visible"/>
			</clipPath>
			<polygon clip-path="url(#SVGID_6_)" fill="#E11837" points="92,413.8 93.2,414.1 131.1,360 132.3,356.7 			"/>
		</g>
		<g>
			<defs>
				<rect id="SVGID_7_" y="327.5" width="612" height="137.1"/>
			</defs>
			<clipPath id="SVGID_8_">
				<use xlink:href="#SVGID_7_"  overflow="visible"/>
			</clipPath>
			<polygon clip-path="url(#SVGID_8_)" fill="#E11837" points="95.6,415 98.3,415.9 126.3,376.1 128.7,367.8 			"/>
		</g>
		<g>
			<defs>
				<rect id="SVGID_9_" y="327.5" width="612" height="137.1"/>
			</defs>
			<clipPath id="SVGID_10_">
				<use xlink:href="#SVGID_9_"  overflow="visible"/>
			</clipPath>
			<polygon clip-path="url(#SVGID_10_)" fill="#E11837" points="99.8,416.5 103,417.7 121.6,391.7 124.8,381.2 			"/>
		</g>
		<g>
			<defs>
				<rect id="SVGID_11_" y="327.5" width="612" height="137.1"/>
			</defs>
			<clipPath id="SVGID_12_">
				<use xlink:href="#SVGID_11_"  overflow="visible"/>
			</clipPath>
			<polygon clip-path="url(#SVGID_12_)" fill="#034EA2" points="87.5,413.8 89,413.8 130.2,355.2 127.2,357.6 			"/>
		</g>
		<g>
			<defs>
				<rect id="SVGID_13_" y="327.5" width="612" height="137.1"/>
			</defs>
			<clipPath id="SVGID_14_">
				<use xlink:href="#SVGID_13_"  overflow="visible"/>
			</clipPath>
			<polygon clip-path="url(#SVGID_14_)" fill="#034EA2" points="80.3,415 83.9,414.4 120.7,362.7 113.5,368.1 			"/>
		</g>
		<g>
			<defs>
				<rect id="SVGID_15_" y="327.5" width="612" height="137.1"/>
			</defs>
			<clipPath id="SVGID_16_">
				<use xlink:href="#SVGID_15_"  overflow="visible"/>
			</clipPath>
			<polygon clip-path="url(#SVGID_16_)" fill="#034EA2" points="73.2,416.2 78,415.6 109,371.4 100.1,378.2 			"/>
		</g>
		<g>
			<defs>
				<rect id="SVGID_17_" y="327.5" width="612" height="137.1"/>
			</defs>
			<clipPath id="SVGID_18_">
				<use xlink:href="#SVGID_17_"  overflow="visible"/>
			</clipPath>
			<polygon clip-path="url(#SVGID_18_)" fill="#034EA2" points="43.9,420.9 71.7,416.5 97.1,380.6 			"/>
		</g>
		<g>
			<defs>
				<rect id="SVGID_19_" y="327.5" width="612" height="137.1"/>
			</defs>
			<clipPath id="SVGID_20_">
				<use xlink:href="#SVGID_19_"  overflow="visible"/>
			</clipPath>
			<path clip-path="url(#SVGID_20_)" fill="#034EA2" d="M517.6,382.1c1.5,2.4,1.8,8.1-0.3,11.9h-13.7c1.2-2.7,1.8-6-0.9-6h-6.6
				l-1.8,6h-19.7l5.7-17.9h29C513.4,376.1,516.7,379.7,517.6,382.1L517.6,382.1z"/>
		</g>
		<g>
			<defs>
				<rect id="SVGID_21_" y="327.5" width="612" height="137.1"/>
			</defs>
			<clipPath id="SVGID_22_">
				<use xlink:href="#SVGID_21_"  overflow="visible"/>
			</clipPath>
			<path clip-path="url(#SVGID_22_)" fill="#034EA2" d="M515.5,397.9c-2.7,3.3-6.3,6-12.5,6h-11.6l-4.2,13.4h-19.7l6-19.4H515.5
				L515.5,397.9z"/>
		</g>
		<g>
			<defs>
				<rect id="SVGID_23_" y="327.5" width="612" height="137.1"/>
			</defs>
			<clipPath id="SVGID_24_">
				<use xlink:href="#SVGID_23_"  overflow="visible"/>
			</clipPath>
			<polygon clip-path="url(#SVGID_24_)" fill="#034EA2" points="416.7,376.1 418.5,394.1 385.6,394.1 398.4,376.1 			"/>
		</g>
		<g>
			<defs>
				<rect id="SVGID_25_" y="327.5" width="612" height="137.1"/>
			</defs>
			<clipPath id="SVGID_26_">
				<use xlink:href="#SVGID_25_"  overflow="visible"/>
			</clipPath>
			<polygon clip-path="url(#SVGID_26_)" fill="#034EA2" points="419.1,397.9 421.1,417.4 404.1,417.4 403.5,410.8 389.5,410.8 
				384.7,417.4 368.9,417.4 382.6,397.9 398.4,397.9 396.4,400.9 402.3,400.9 402,397.9 			"/>
		</g>
		<g>
			<defs>
				<rect id="SVGID_27_" y="327.5" width="612" height="137.1"/>
			</defs>
			<clipPath id="SVGID_28_">
				<use xlink:href="#SVGID_27_"  overflow="visible"/>
			</clipPath>
			<path clip-path="url(#SVGID_28_)" fill="#034EA2" d="M142.8,376.1h40l-3.9,12.2h-10.2l-1.8,5.7h-19.7l1.8-5.7h-10.2L142.8,376.1
				L142.8,376.1z M165.8,397.9l-6,19.4h-19.7l6-19.4H165.8L165.8,397.9z"/>
		</g>
		<g>
			<defs>
				<rect id="SVGID_29_" y="327.5" width="612" height="137.1"/>
			</defs>
			<clipPath id="SVGID_30_">
				<use xlink:href="#SVGID_29_"  overflow="visible"/>
			</clipPath>
			<path clip-path="url(#SVGID_30_)" fill="#034EA2" d="M468.6,394.1h-35.2l0.6-2.1h13.4c-0.9-1.8-9.6-3.6-14.9-1.8l4.5-14.3
				C451.6,371.4,476.1,371.7,468.6,394.1L468.6,394.1z"/>
		</g>
		<g>
			<defs>
				<rect id="SVGID_31_" y="327.5" width="612" height="137.1"/>
			</defs>
			<clipPath id="SVGID_32_">
				<use xlink:href="#SVGID_31_"  overflow="visible"/>
			</clipPath>
			<path clip-path="url(#SVGID_32_)" fill="#034EA2" d="M467.1,397.9c-7.8,22.7-28.7,23.9-42.4,17.3l4.5-13.7
				c4.2,1.8,15.5,1.8,16.1-1.5h-13.7l0.6-2.1H467.1L467.1,397.9z"/>
		</g>
		<g>
			<defs>
				<rect id="SVGID_33_" y="327.5" width="612" height="137.1"/>
			</defs>
			<clipPath id="SVGID_34_">
				<use xlink:href="#SVGID_33_"  overflow="visible"/>
			</clipPath>
			<path clip-path="url(#SVGID_34_)" fill="#034EA2" d="M377.8,376.7l-4.2,13.4c-6.9-1.5-17.6-0.9-21.2,3.9h-18.5
				c1.8-5.1,6.3-10.8,10.8-14C351.8,374,369.2,371.7,377.8,376.7L377.8,376.7z"/>
		</g>
		<g>
			<defs>
				<rect id="SVGID_35_" y="327.5" width="612" height="137.1"/>
			</defs>
			<clipPath id="SVGID_36_">
				<use xlink:href="#SVGID_35_"  overflow="visible"/>
			</clipPath>
			<path clip-path="url(#SVGID_36_)" fill="#034EA2" d="M350.7,397.9c-0.3,2.1,0.9,3.6,2.7,4.2c3.3,1.2,13.7,0.9,16.4-0.6l-4.5,13.7
				c-5.7,2.1-20.9,7.5-29.3-1.5c-3.6-4.2-5.7-9.3-3.9-15.8H350.7L350.7,397.9z"/>
		</g>
		<g>
			<defs>
				<rect id="SVGID_37_" y="327.5" width="612" height="137.1"/>
			</defs>
			<clipPath id="SVGID_38_">
				<use xlink:href="#SVGID_37_"  overflow="visible"/>
			</clipPath>
			<polygon clip-path="url(#SVGID_38_)" fill="#034EA2" points="334.5,376.1 328.8,394.1 281.4,394.1 286.7,376.1 306.7,376.1 
				301.7,392 309.7,392 314.5,376.1 			"/>
		</g>
		<g>
			<defs>
				<rect id="SVGID_39_" y="327.5" width="612" height="137.1"/>
			</defs>
			<clipPath id="SVGID_40_">
				<use xlink:href="#SVGID_39_"  overflow="visible"/>
			</clipPath>
			<polygon clip-path="url(#SVGID_40_)" fill="#034EA2" points="327.4,397.9 321.4,417.4 301.7,417.4 307,400 299,400 293.6,417.4 
				273.9,417.4 279.9,397.9 			"/>
		</g>
		<g>
			<defs>
				<rect id="SVGID_41_" y="327.5" width="612" height="137.1"/>
			</defs>
			<clipPath id="SVGID_42_">
				<use xlink:href="#SVGID_41_"  overflow="visible"/>
			</clipPath>
			<polygon clip-path="url(#SVGID_42_)" fill="#034EA2" points="267,376.1 268.8,394.1 236,394.1 248.8,376.1 			"/>
		</g>
		<g>
			<defs>
				<rect id="SVGID_43_" y="327.5" width="612" height="137.1"/>
			</defs>
			<clipPath id="SVGID_44_">
				<use xlink:href="#SVGID_43_"  overflow="visible"/>
			</clipPath>
			<polygon clip-path="url(#SVGID_44_)" fill="#034EA2" points="269.4,397.9 271.5,417.4 254.5,417.4 253.9,410.8 239.8,410.8 
				235.1,417.4 219.2,417.4 233.3,397.9 248.8,397.9 246.7,400.9 252.7,400.9 252.4,397.9 			"/>
		</g>
		<g>
			<defs>
				<rect id="SVGID_45_" y="327.5" width="612" height="137.1"/>
			</defs>
			<clipPath id="SVGID_46_">
				<use xlink:href="#SVGID_45_"  overflow="visible"/>
			</clipPath>
			<path clip-path="url(#SVGID_46_)" fill="#034EA2" d="M226.7,382.1c1.5,2.4,1.8,8.1-0.3,11.9h-13.7c1.2-2.7,1.8-6-0.9-6h-6.6
				l-1.8,6h-19.7l5.7-17.9h29C222.8,376.1,225.8,379.7,226.7,382.1L226.7,382.1z"/>
		</g>
		<g>
			<defs>
				<rect id="SVGID_47_" y="327.5" width="612" height="137.1"/>
			</defs>
			<clipPath id="SVGID_48_">
				<use xlink:href="#SVGID_47_"  overflow="visible"/>
			</clipPath>
			<path clip-path="url(#SVGID_48_)" fill="#034EA2" d="M224.6,397.9c-2.7,3.3-6.3,6-12.5,6h-11.6l-4.2,13.4h-20l6-19.4H224.6
				L224.6,397.9z"/>
		</g>
		<g>
			<defs>
				<rect id="SVGID_49_" y="327.5" width="612" height="137.1"/>
			</defs>
			<clipPath id="SVGID_50_">
				<use xlink:href="#SVGID_49_"  overflow="visible"/>
			</clipPath>
			<path clip-path="url(#SVGID_50_)" fill="#034EA2" d="M537.6,419.4c-12.5,0-20-9.6-17-21.5H537c-0.3,3.3,1.8,5.7,5.7,5.7
				c3.6,0,7.5-2.4,9.3-5.7h16.4C563.6,409.9,550.2,419.4,537.6,419.4L537.6,419.4z M522.1,394.1c4.8-11.3,17.9-20.3,30.2-20.3
				c12.2,0,19.4,9,17.3,20.3h-17c-0.3-2.7-2.4-4.8-5.7-4.8c-3.3,0-6.6,2.1-8.7,4.8H522.1L522.1,394.1z"/>
		</g>
		<g>
			<defs>
				<rect id="SVGID_51_" y="327.5" width="612" height="137.1"/>
			</defs>
			<clipPath id="SVGID_52_">
				<use xlink:href="#SVGID_51_"  overflow="visible"/>
			</clipPath>
			<path clip-path="url(#SVGID_52_)" fill="#034EA2" d="M371.9,434.7c2.1,0.3,3.6,1.8,2.7,3.9c-0.9,2.4-3.6,3.6-6,3.6h-1.8
				c-1.5,0-3-0.3-4.5-0.3c-0.3,0-0.9,0-1.2,0c-0.3,0-0.3,0-0.3-0.3s1.2-0.3,1.5-0.3c0.3,0,0.3,0,0.3-0.3c0.3-0.3,0.6-0.6,0.6-0.9
				l3.3-10.5c0.3-0.6,0-1.2-0.6-1.2c-0.3,0-0.3,0-0.6,0s-0.6,0-0.6,0c0-0.3,0.6-0.3,1.5-0.6c0.9,0,2.1,0,3.3,0h1.8
				c1.5,0,3.6,0.3,4.2,1.8c0.6,1.2,0,2.1-0.6,3C374.5,433.8,373.1,434.4,371.9,434.7L371.9,434.7z M368.9,430.2l-1.2,3.6
				c-0.3,0.6-0.3,0.9,0.3,0.9h1.8c0.6,0,1.2-0.3,1.8-0.3c0.9-0.6,2.1-1.5,2.4-2.7c0.3-0.6,0.3-1.2,0-1.8c-0.3-1.2-2.1-1.5-3-1.5
				c-0.6,0-1.5,0-1.8,0.6C369.2,429.3,368.9,429.9,368.9,430.2L368.9,430.2z M365.6,440.4c-0.3,0.6-0.3,1.5,0.6,1.5
				c0.9,0.3,2.1,0.3,3.3,0c1.5-0.3,2.7-1.8,3.3-3.3c0.6-1.5,0-2.7-1.5-3.3c-0.6,0-1.2-0.3-2.1-0.3h-1.5c-0.3,0-0.9,0.3-0.9,0.9
				L365.6,440.4L365.6,440.4z"/>
		</g>
		<g>
			<defs>
				<rect id="SVGID_53_" y="327.5" width="612" height="137.1"/>
			</defs>
			<clipPath id="SVGID_54_">
				<use xlink:href="#SVGID_53_"  overflow="visible"/>
			</clipPath>
			<path clip-path="url(#SVGID_54_)" fill="#034EA2" d="M468.6,430.5c0.3-0.9,0.3-0.9-0.9-1.2c-0.3,0-0.6-0.3-0.3-0.6
				c0-0.3,0.3-0.3,0.6-0.3s0.6,0,1.2,0h12.5c0.3,0,0.6,0,0.6,0.3s-0.3,0.3-0.6,0.3c-0.3,0-0.9,0-1.5,0.3c-0.3,0.3-0.3,0.6-0.6,0.9
				l-3,9.9c-0.3,0.6-0.3,1.2,0.6,1.2c0.3,0,0.6,0,0.6,0c0.3,0,0.3,0,0.3,0.3s-0.3,0.3-0.6,0.3c-0.9,0-1.2-0.3-2.4-0.3
				c-0.9,0-1.5,0.3-2.4,0.3c-0.6,0-0.6,0-0.6-0.3s0.3-0.3,0.6-0.3c0.3,0,0.6,0,0.9,0c0.9,0,1.2-0.9,1.2-1.5l3.3-10.8h-7.5l-3.3,10.8
				c-0.3,0.6-0.3,1.2,0,1.2s0.9,0,1.2,0c0.3,0,0.3,0,0.3,0.3s-0.3,0.3-0.6,0.3c-0.9,0-1.5-0.3-2.4-0.3c-1.2,0-1.5,0-2.7,0.3
				c-0.3,0-0.6,0-0.6-0.3s0.3-0.3,0.6-0.3s0.6,0,0.9,0c0.6,0,0.9-0.6,1.2-1.2L468.6,430.5L468.6,430.5z"/>
		</g>
		<g>
			<defs>
				<rect id="SVGID_55_" y="327.5" width="612" height="137.1"/>
			</defs>
			<clipPath id="SVGID_56_">
				<use xlink:href="#SVGID_55_"  overflow="visible"/>
			</clipPath>
			<path clip-path="url(#SVGID_56_)" fill="#034EA2" d="M536.7,435.3c-0.6,0-0.9,0.6-1.2,0.9l-3.9,4.5c-0.6,0.6-0.9,0.9-1.8,0.9
				c-0.3,0-0.6,0-0.6,0.3s0,0.3,0.3,0.3h2.4c0.6,0,0.9-0.9,1.2-1.2l4.2-5.1c0.3-0.3,0.9-0.6,1.8-0.6h0.6c0.3,0,0.3,0.3,0.3,0.6
				l-1.5,4.5c0,0.3-0.3,0.6-0.6,0.9c-0.3,0.3-0.9,0-1.2,0c-0.3,0-0.6,0-0.6,0.3s0,0.3,0.3,0.3c0.9,0,1.5-0.3,2.4-0.3
				s1.5,0.3,2.4,0.3c0.3,0,0.6,0,0.6-0.3s0-0.3-0.3-0.3s-0.3,0-0.3,0c-0.9,0-0.9-0.6-0.9-1.2l3.3-10.5c0.3-1.2,0.6-1.2,1.5-1.2
				c0.3,0,0.6,0,0.6,0s0.3,0,0.3-0.3c0-0.3,0-0.3-0.3-0.3c-0.6,0-1.2,0-1.8,0h-3.3c-0.9,0-2.1,0-3.3,0.3c-1.2,0.6-2.7,1.8-3,3
				c-0.3,0.6,0,1.5,0.3,2.1C534.9,434.7,535.5,435.3,536.7,435.3L536.7,435.3z M541.5,430.2l-1.5,4.5c0,0.3-0.3,0.3-0.9,0.3
				c-0.9,0-1.8,0-2.4-0.3c-0.6-0.3-0.6-0.6-0.9-1.2c0-0.6,0-1.2,0-1.5c0.3-0.9,0.6-1.5,1.5-2.1c0.9-0.6,1.8-0.9,2.7-0.9
				c0.3,0,0.9,0,1.2,0C541.8,429.3,541.5,429.9,541.5,430.2L541.5,430.2z"/>
		</g>
		<g>
			<defs>
				<rect id="SVGID_57_" y="327.5" width="612" height="137.1"/>
			</defs>
			<clipPath id="SVGID_58_">
				<use xlink:href="#SVGID_57_"  overflow="visible"/>
			</clipPath>
			<path clip-path="url(#SVGID_58_)" fill="#034EA2" d="M500,430.2c0.3-0.6-0.3-0.9-0.9-0.9c-0.3,0-0.9,0-0.9-0.3
				c0-0.3,0.6-0.3,0.9-0.3h4.5c0.6,0,0.6,0,0.6,0.3c0,0.3-0.6,0.3-0.6,0.3c-0.3,0-0.9,0-1.2,0.3c-0.3,0.3-0.6,0.6-0.6,0.9l-1.2,3.6
				c-0.3,0.6-0.3,0.9,0.3,0.9h6.6c0.6,0,0.6-0.3,0.6-0.9l1.2-3.6c0-0.3,0-0.6,0-0.6c-0.3,0-0.6-0.3-0.9-0.3s-0.6,0-0.6-0.3
				s0.3-0.3,0.9-0.3h4.5c0.3,0,0.6,0,0.3,0.3c0,0.3,0,0.3-0.3,0.3s-0.6,0-0.9,0c-0.6,0-0.9,0.3-1.2,0.9l-3.3,10.5
				c-0.3,0.9,0,0.9,0.6,1.2c0.3,0,0.3,0,0.6,0c0.3,0,0.3,0,0.3,0.3s-0.3,0.3-0.9,0.3c-0.9,0-1.5-0.3-2.4-0.3s-1.5,0.3-2.4,0.3
				c-0.3,0-0.6,0-0.6-0.3s0.3-0.3,0.6-0.3c0.3,0,0.6,0,0.9,0c0.6,0,0.9-0.6,1.2-1.2l1.5-4.8c0-0.3-0.3-0.6-0.6-0.6h-6.3
				c-0.6,0-0.9,0-0.9,0.6l-1.5,4.8c-0.3,0.6-0.3,0.9,0.3,1.2c0,0,0.3,0,0.6,0c0.3,0,0.9,0,0.6,0.3c0,0.3-0.3,0.3-0.6,0.3
				c-0.9,0-1.8-0.3-2.4-0.3c-0.9,0-1.5,0.3-2.4,0.3c-0.3,0-0.6,0-0.6-0.3s0.3-0.3,0.6-0.3s0.6,0,0.9,0c0.3,0,0.9-0.6,0.9-0.9
				L500,430.2L500,430.2z"/>
		</g>
		<g>
			<defs>
				<rect id="SVGID_59_" y="327.5" width="612" height="137.1"/>
			</defs>
			<clipPath id="SVGID_60_">
				<use xlink:href="#SVGID_59_"  overflow="visible"/>
			</clipPath>
			<path clip-path="url(#SVGID_60_)" fill="#034EA2" d="M381.7,430.2c0.3-0.6,0.3-0.9-0.6-1.2c-0.3,0-0.9,0-0.9-0.6
				c0,0,0.3-0.3,0.9-0.3c0.6,0,1.2,0,1.8,0c0.9,0,1.8,0,2.4,0s0.6,0,0.6,0.3s-0.6,0.3-0.9,0.3c-0.6,0-1.5,0.3-1.8,1.2l-3.3,10.2
				l11.6-11.1c-0.3-0.3-0.9-0.3-1.2-0.3c-0.3,0-0.6-0.3-0.6-0.3s0.3-0.3,0.9-0.3h4.8c0.3,0,0.6,0,0.6,0.3s-0.3,0.3-0.6,0.3
				c-0.3,0-0.6,0-0.9,0c-0.6,0-1.2,0.3-1.2,0.9l-3.3,10.5c0,0.3,0,0.6,0,0.9c0.3,0.3,0.9,0.3,1.5,0.3c0.3,0,0.3,0,0.3,0.3
				s-0.3,0.3-0.9,0.3c-0.9,0-1.5-0.3-2.4-0.3s-1.8,0.3-2.4,0.3s-0.6,0-0.6-0.3s0.3-0.3,0.6-0.3c0.6,0,1.2,0,1.8-0.3
				c0,0,0.3-0.6,0.6-0.9c0-0.3,3.3-10.5,3.3-10.5l-11.6,11.1c-0.3,0.3-0.3,0.6,0.3,0.6c0,0,0.3,0,0.6,0s0.9-0.3,0.9,0.3
				c0,0.3-0.3,0.3-0.6,0.3c-0.9,0-1.8-0.3-2.4-0.3c-0.9,0-1.5,0.3-2.1,0.3c-0.3,0-0.6,0-0.6-0.3c0-0.3,0.3-0.3,0.6-0.3
				c0.9,0,1.2-0.3,1.5-1.2L381.7,430.2L381.7,430.2z"/>
		</g>
		<g>
			<defs>
				<rect id="SVGID_61_" y="327.5" width="612" height="137.1"/>
			</defs>
			<clipPath id="SVGID_62_">
				<use xlink:href="#SVGID_61_"  overflow="visible"/>
			</clipPath>
			<path clip-path="url(#SVGID_62_)" fill="#034EA2" d="M400.2,437.4c-0.3,0-0.3,0-0.3,0s-0.3,0.3-0.6,0.9l-1.5,2.1
				c0,0.3-0.3,0.3-0.3,0.6s0,0.6,0.6,0.9c0.3,0,0.6,0,1.2,0c0,0,0,0,0,0.3s-0.3,0.3-0.6,0.3c-0.6,0-1.2-0.3-1.8-0.3
				c-0.9,0-1.5,0.3-2.4,0.3c-0.3,0-0.6,0-0.3-0.3c0-0.3,0.6-0.3,0.9-0.3s0.6,0,0.9-0.3c0.3,0,0.6-0.6,1.2-1.2l8.4-11.9
				c0.3-0.3,0.3-0.6,0.3-0.6h0.3v0.3l1.2,11.9c0,0.6,0,0.9,0.3,0.9s0.6,0.3,0.9,0.3s0.6,0.3,0.3,0.3c0,0-0.3,0.3-0.6,0.3h-5.4
				c-0.3,0-0.3,0-0.3-0.3c0,0,0-0.3,0.3-0.3c0.3,0,1.2,0,1.5,0s0.3-0.3,0.3-0.6c0-0.3,0-0.6,0-0.9l-0.3-2.4c0-0.3,0-0.3-0.3-0.6
				c0,0-0.3,0-0.6,0h-3.3V437.4z M401.1,436.8h2.7c0.3,0,0.3,0,0.3,0c0.3,0,0.3,0,0.3-0.3c0,0,0-0.3,0-0.9l-0.3-3.3
				c0-0.6,0-0.9-0.3-0.9c0,0-0.3,0.3-0.6,0.6l-2.4,3.6c-0.3,0.3-0.3,0.6-0.3,0.6s0,0.3,0.3,0.3C400.5,436.8,400.8,436.8,401.1,436.8
				L401.1,436.8z"/>
		</g>
		<g>
			<defs>
				<rect id="SVGID_63_" y="327.5" width="612" height="137.1"/>
			</defs>
			<clipPath id="SVGID_64_">
				<use xlink:href="#SVGID_63_"  overflow="visible"/>
			</clipPath>
			<path clip-path="url(#SVGID_64_)" fill="#034EA2" d="M415.5,430.2L415.5,430.2c0-0.3,0-0.6,0-0.9c-0.3-0.3-0.9-0.3-1.2-0.3
				c-0.3,0-0.3-0.3-0.3-0.3s0.3-0.3,0.6-0.3h5.1c0.3,0,0.6,0,0.3,0.3c0,0,0,0.3-0.3,0.3c-0.6,0-0.9,0-1.5,0.3
				c-0.3,0-0.6,0.3-0.6,0.9l-1.5,4.8c0,0.3,0,0.3,0,0.3c0.3,0,0.3-0.3,0.6-0.3l5.7-4.5c0.6-0.6,0.9-0.9,0.9-0.9c0-0.3,0-0.3,0-0.3
				s-0.3,0-0.6,0c-0.3,0-0.6,0-0.6-0.3c0-0.3,0.3-0.3,0.6-0.3h4.5c0.3,0,0.3,0,0.3,0.3c0,0.3-0.3,0.3-0.3,0.3c-0.6,0-0.9,0-1.5,0
				s-1.5,0.6-2.4,1.2l-3.9,3c-0.3,0.3-0.6,0.3-0.6,0.6c0,0,0,0.3,0.3,0.6l3.3,6.3c0.3,0.6,0.9,1.2,1.8,1.2c0,0,0.3,0,0.3,0.3
				c0,0.3-0.3,0.3-0.6,0.3c-0.9,0-1.8-0.3-2.7-0.3c-0.9,0-1.8,0.3-2.7,0.3c-0.3,0-0.3,0-0.3-0.3c0,0,0-0.3,0.3-0.3
				c0.6,0,0.9,0,1.5-0.3c0.6-0.3,0.6-0.6,0.3-1.2l-2.1-4.5c-0.3-0.3-0.3-0.6-0.3-0.6s-0.3-0.3-0.3,0l-1.5,0.9l0,0v0.3l-1.2,4.2
				c0,0.3,0,0.6,0.3,0.9s0.9,0,1.2,0.3c0.3,0,0.3,0,0.3,0.3s-0.3,0.3-0.9,0.3c-0.9,0-1.5-0.3-2.4-0.3s-1.5,0.3-2.1,0.3
				c-0.3,0-0.6,0-0.6-0.3s0.6-0.3,0.9-0.3c0.3,0,0.9,0,1.2-0.3c0.3-0.3,0.3-0.6,0.6-0.9L415.5,430.2L415.5,430.2z"/>
		</g>
		<g>
			<defs>
				<rect id="SVGID_65_" y="327.5" width="612" height="137.1"/>
			</defs>
			<clipPath id="SVGID_66_">
				<use xlink:href="#SVGID_65_"  overflow="visible"/>
			</clipPath>
			<path clip-path="url(#SVGID_66_)" fill="#034EA2" d="M428.9,432.3c2.1-2.4,5.4-4.2,8.4-4.2c2.7,0,5.4,1.2,6,4.2
				c0.3,2.1-0.6,4.5-1.8,6.3c-1.8,2.4-5.4,4.2-8.4,4.2c-2.7,0-5.4-1.5-6-4.2C426.5,436.5,427.4,433.8,428.9,432.3L428.9,432.3z
				 M428.9,438.3c0,2.4,1.8,3.9,4.2,3.9c2.7,0,5.1-1.8,6.3-3.9c1.2-1.8,2.1-4.5,1.5-6.6s-2.1-3-3.9-3c-2.7,0-5.1,1.5-6.6,3.6
				C429.5,433.8,428.6,436.2,428.9,438.3L428.9,438.3z"/>
		</g>
		<g>
			<defs>
				<rect id="SVGID_67_" y="327.5" width="612" height="137.1"/>
			</defs>
			<clipPath id="SVGID_68_">
				<use xlink:href="#SVGID_67_"  overflow="visible"/>
			</clipPath>
			<path clip-path="url(#SVGID_68_)" fill="#034EA2" d="M452.2,439.2l7.2-9.6c0.3-0.3,0.6-0.6,0.6-0.9c0.3,0,0.3-0.3,0.6-0.3h2.4
				c0.3,0,0.6,0,0.6,0.3s-0.6,0.3-0.9,0.3c-0.6,0-1.2,0.3-1.5,0.9l-3.3,10.5c0,0.3,0,0.6,0,0.9c0.3,0.6,0.6,0.3,0.9,0.3
				s0.6,0,0.3,0.3c0,0.3-0.3,0.3-0.6,0.3c-0.9,0-1.8-0.3-2.4-0.3s-1.5,0.3-2.1,0.3c-0.3,0-0.6,0-0.6-0.3s0.3-0.3,0.6-0.3
				s0.9,0,1.2-0.3c0.3,0,0.6-0.6,0.9-1.2l3.3-10.5h-0.3L451,441c-0.3,0.6-0.9,0.9-0.9,0l-0.9-11.1h-0.3l-3.6,9.6
				c-0.3,0.6-0.6,1.8,0.6,1.8c0.3,0,0.6,0,0.9,0c0.3,0,0.3,0.3,0.3,0.3c0,0.3-0.3,0.3-0.6,0.3c-0.6,0-1.5-0.3-2.1-0.3
				s-1.2,0.3-1.8,0.3c-0.3,0-0.3,0-0.3-0.3s0.3-0.3,0.6-0.3c0.9,0,1.5-0.3,1.8-1.2l3.9-10.8c0.3-0.6-0.3-0.9-0.9-0.9
				c-0.3,0-0.6,0-0.6-0.3s0.6-0.3,0.6-0.3h2.4c0.6,0,0.6,0.6,0.6,0.9L452.2,439.2L452.2,439.2z"/>
		</g>
		<g>
			<defs>
				<rect id="SVGID_69_" y="327.5" width="612" height="137.1"/>
			</defs>
			<clipPath id="SVGID_70_">
				<use xlink:href="#SVGID_69_"  overflow="visible"/>
			</clipPath>
			<path clip-path="url(#SVGID_70_)" fill="#034EA2" d="M352.1,437.4c-0.3,0-0.3,0-0.3,0s-0.3,0.3-0.6,0.9l-1.5,2.1
				c0,0.3-0.3,0.3-0.3,0.6s0,0.6,0.6,0.9c0.3,0,0.6,0,1.2,0c0,0,0,0,0,0.3s-0.3,0.3-0.6,0.3c-0.6,0-1.2-0.3-1.8-0.3
				c-0.9,0-1.5,0.3-2.4,0.3c-0.3,0-0.6,0-0.3-0.3c0-0.3,0.6-0.3,0.9-0.3c0.3,0,0.6,0,0.9-0.3c0.3,0,0.6-0.6,1.2-1.2l8.4-11.9
				c0.3-0.3,0.3-0.6,0.3-0.6h0.3v0.3l1.2,11.9c0,0.6,0,0.9,0.3,0.9s0.6,0.3,0.9,0.3c0.3,0,0.6,0.3,0.3,0.3c0,0-0.3,0.3-0.6,0.3h-5.4
				c-0.3,0-0.3,0-0.3-0.3c0,0,0-0.3,0.3-0.3c0.3,0,1.2,0,1.5,0c0.3,0,0.3-0.3,0.3-0.6c0-0.3,0-0.6,0-0.9l-0.3-2.4
				c0-0.3,0-0.3-0.3-0.6c0,0-0.3,0-0.6,0h-3.3V437.4z M353,436.8h2.7c0.3,0,0.3,0,0.3,0c0.3,0,0.3,0,0.3-0.3c0,0,0-0.3,0-0.9
				l-0.3-3.3c0-0.6,0-0.9-0.3-0.9c0,0-0.3,0.3-0.6,0.6l-2.4,3.6c-0.3,0.3-0.3,0.6-0.3,0.6s0,0.3,0.3,0.3
				C352.4,436.8,352.7,436.8,353,436.8L353,436.8z"/>
		</g>
		<g>
			<defs>
				<rect id="SVGID_71_" y="327.5" width="612" height="137.1"/>
			</defs>
			<clipPath id="SVGID_72_">
				<use xlink:href="#SVGID_71_"  overflow="visible"/>
			</clipPath>
			<path clip-path="url(#SVGID_72_)" fill="#034EA2" d="M485.7,437.4c-0.3,0-0.3,0-0.3,0s-0.3,0.3-0.6,0.9l-1.5,2.1
				c0,0.3-0.3,0.3-0.3,0.6s0,0.6,0.6,0.9c0.3,0,0.6,0,1.2,0c0,0,0,0,0,0.3s-0.3,0.3-0.6,0.3c-0.6,0-1.2-0.3-1.8-0.3
				c-0.9,0-1.5,0.3-2.4,0.3c-0.3,0-0.6,0-0.3-0.3c0-0.3,0.6-0.3,0.9-0.3c0.3,0,0.6,0,0.9-0.3c0.3,0,0.6-0.6,1.2-1.2l8.4-11.9
				c0.3-0.3,0.3-0.6,0.3-0.6h0.3v0.3l1.2,11.9c0,0.6,0,0.9,0.3,0.9s0.6,0.3,0.9,0.3s0.6,0.3,0.3,0.3c0,0-0.3,0.3-0.6,0.3h-5.4
				c-0.3,0-0.3,0-0.3-0.3c0,0,0-0.3,0.3-0.3c0.3,0,1.2,0,1.5,0c0.3,0,0.3-0.3,0.3-0.6c0-0.3,0-0.6,0-0.9l-0.3-2.4
				c0-0.3,0-0.3-0.3-0.6c0,0-0.3,0-0.6,0h-3.3V437.4z M486.6,436.8h2.7c0.3,0,0.3,0,0.3,0c0.3,0,0.3,0,0.3-0.3c0,0,0-0.3,0-0.9
				l-0.3-3.3c0-0.6,0-0.9-0.3-0.9c0,0-0.3,0.3-0.6,0.6l-2.4,3.6c-0.3,0.3-0.3,0.6-0.3,0.6s0,0.3,0.3,0.3
				C486.3,436.8,486.3,436.8,486.6,436.8L486.6,436.8z"/>
		</g>
		<g>
			<defs>
				<rect id="SVGID_73_" y="327.5" width="612" height="137.1"/>
			</defs>
			<clipPath id="SVGID_74_">
				<use xlink:href="#SVGID_73_"  overflow="visible"/>
			</clipPath>
			<path clip-path="url(#SVGID_74_)" fill="#034EA2" d="M517.6,430.2c0.3-0.6,0.3-0.9-0.6-1.2c-0.3,0-0.9,0-0.9-0.6
				c0,0,0.3-0.3,0.9-0.3s1.2,0,1.8,0c0.9,0,1.8,0,2.4,0s0.6,0,0.6,0.3s-0.6,0.3-0.9,0.3c-0.6,0-1.5,0.3-1.8,1.2l-3.3,10.2l11.6-11.1
				c-0.3-0.3-0.9-0.3-1.2-0.3c-0.3,0-0.6-0.3-0.6-0.3s0.3-0.3,0.9-0.3h4.8c0.3,0,0.6,0,0.6,0.3s-0.3,0.3-0.6,0.3c-0.3,0-0.6,0-0.9,0
				c-0.6,0-1.2,0.3-1.2,0.9l-3.3,10.5c0,0.3,0,0.6,0,0.9c0.3,0.3,0.9,0.3,1.5,0.3c0.3,0,0.3,0,0.3,0.3s-0.3,0.3-0.9,0.3
				c-0.9,0-1.5-0.3-2.4-0.3s-1.8,0.3-2.4,0.3s-0.6,0-0.6-0.3s0.3-0.3,0.6-0.3c0.6,0,1.2,0,1.8-0.3c0,0,0.3-0.6,0.6-0.9
				c0-0.3,3.3-10.5,3.3-10.5l-11.6,11.1c-0.3,0.3-0.3,0.6,0.3,0.6c0,0,0.3,0,0.6,0c0.3,0,0.9-0.3,0.9,0.3c0,0.3-0.3,0.3-0.6,0.3
				c-0.9,0-1.8-0.3-2.4-0.3c-0.9,0-1.5,0.3-2.1,0.3c-0.3,0-0.6,0-0.6-0.3c0-0.3,0.3-0.3,0.6-0.3c0.9,0,1.2-0.3,1.5-1.2L517.6,430.2
				L517.6,430.2z"/>
		</g>
	</g>
</g>
</svg>
