<svg xmlns="http://www.w3.org/2000/svg" viewBox="0 0 787 179"><path fill-rule="evenodd" clip-rule="evenodd" fill="#3e4856" d="M219.5 106.6h545.8v2.5H219.5zm13.8-62V74c0 1.1.1 2 .2 2.8.2.7.4 1.2.7 1.6.3.4.8.8 1.4 1 .7.2 1.5.4 2.6.4h6.5c3.6 0 6.7-.5 9.3-1.6 2.5-1.1 4.5-2.6 6-4.7l1-1.5.1-.1.1-.1c.1-.1.2-.1.3-.2.1-.1.3-.1.4-.1h.2l.3.1c.2 0 .4.2.6.3.2.2.3.4.3.6v.2l-.1.2-4.5 10-.2.4h-.4l-37.8.1h-.3l-.2-.2-.5-.5-.3-.3.2-.4.3-.5.2-.3h.3c1.2-.1 2.2-.4 3-.8.7-.4 1.3-.9 1.7-1.5.3-.5.6-1.2.8-2.1.2-.9.3-2 .3-3.3V44.6c0-2.6-.2-4.3-.7-5.2-.7-1.3-2-2.1-4-2.4l-.3-.1-.1-.3-.2-.5-.1-.3.2-.3.4-.5.2-.3h18.4l.2.2.5.5.3.3-.2.4-.3.5-.2.3h-.3c-1.2.1-2.3.4-3.1.7-.8.3-1.3.8-1.7 1.3-.4.5-.7 1.3-.9 2.2-.5 1-.6 2.1-.6 3.5m69.5 12.9l-6.7-15-6.7 15h13.4zm22.3 23.9l.1.5.1.2-.1.2-.3.5-.2.3h-18.6l-.1-.1-.3-.5-.1-.2.1-.2.1-.5.1-.4h.4c1.5-.1 2.7-.4 3.4-.7.6-.3.9-.6 1-1l.1-1c0-.4 0-.9-.2-1.4-.1-.6-.4-1.2-.6-1.9l-5.8-13.7h-16.3l-5 11.7c-.5 1.1-.8 2-1 2.8-.2.8-.3 1.4-.3 1.9 0 .9.4 1.6 1.1 2.1.8.6 2 1 3.7 1.2l.4.1.1.4.1.5.1.2-.1.2-.3.5-.2.3h-15.6l-.2-.3-.3-.5-.1-.2.1-.2.1-.5.1-.4.4-.1c1.4-.3 2.7-1.1 4-2.5 1.3-1.4 2.5-3.4 3.6-5.9L294.3 37l.3-2v-.1l.1-.1.4-.7.1-.2.3-.1c.3-.1.6-.1.9-.2.3 0 .6-.1.9-.1h.5c.4 0 .7 0 1.1.1.4 0 .7.1 1.1.2l.3.1.1.2 1.1 2 16.8 38.7c.9 2 1.9 3.6 2.9 4.6 1.1 1 2.2 1.5 3.5 1.6h.4v.4zm45.2-11.8c0 4.9-2.2 8.7-6.7 11.4-3.7 2.3-8.1 3.5-13.1 3.5-2.5 0-5.2-.3-7.9-.9-2.6-.6-5.3-1.5-8.1-2.7l-.6.3-.1.1h-1.5v-.6l.3-10v-.4l.3-.2c.1-.1.3-.1.5-.2.2 0 .3-.1.5-.1s.4 0 .6.1c.2.1.4.2.5.4l.1.1v.1c.3 1.7.9 3.1 1.8 4.5.9 1.3 2.1 2.5 3.7 3.4 1.4.9 2.9 1.6 4.6 2 1.6.4 3.3.7 5.2.7 1.7 0 3.2-.2 4.6-.5 1.4-.4 2.7-.9 3.9-1.6 1.3-.8 2.3-1.8 3-3 .7-1.2 1-2.5 1-4 0-4.5-4.1-8.1-12.3-10.7-5.6-1.8-9.9-4-12.7-6.4-2.9-2.5-4.4-5.3-4.4-8.5 0-2.2.5-4.2 1.5-5.9 1-1.7 2.5-3.1 4.5-4.3 1.6-1 3.5-1.7 5.4-2.2 2-.5 4.1-.7 6.4-.7 2.4 0 4.8.3 7.2.8 2.3.5 4.6 1.3 6.8 2.3l.5-.2.1-.1h1.5v.6L367 45v.2l-.1.2c-.1.2-.2.3-.4.4-.1.1-.3.2-.5.2h-.2c-.2 0-.4-.1-.6-.2-.1-.1-.3-.2-.4-.4l-.1-.1v-.1c-.4-1.4-1.1-2.7-2-3.8-.9-1.1-2.1-2.1-3.6-2.9-1.3-.8-2.7-1.3-4.2-1.7-1.5-.4-3-.6-4.6-.6-1.4 0-2.6.2-3.8.5-1.1.3-2.1.8-3 1.4-1 .7-1.7 1.5-2.2 2.5-.5 1-.7 2.1-.7 3.4 0 2 1.1 3.9 3.3 5.7 2.3 1.8 5.8 3.5 10.5 4.9 5.1 1.6 9 3.6 11.6 6.1 3 2.6 4.3 5.5 4.3 8.9m16-25c0-1.2-.1-2.3-.2-3.1-.1-.8-.3-1.5-.5-2-.3-.7-.8-1.3-1.3-1.7-.6-.4-1.4-.7-2.3-.9l-.3-.1-.1-.3-.2-.5-.1-.3.2-.3.4-.5.2-.3h16.8l.2.3.4.5.2.3-.1.3-.2.5-.1.3-.3.1c-1.1.2-2 .4-2.6.9-.7.4-1.2.9-1.5 1.5-.5 1-.8 2.7-.8 5.3v11.6h29.7V44.6c0-1.3-.1-2.4-.2-3.3-.1-.9-.4-1.5-.7-2-.3-.6-.9-1.1-1.6-1.5-.7-.4-1.7-.7-2.8-.8h-.3l-.2-.3-.3-.5-.2-.4.3-.3.4-.5.2-.2h17.5l.2.3.4.5.2.3-.1.3-.2.5-.1.3-.3.1c-1 .2-1.8.5-2.5.9-.6.4-1.1 1-1.4 1.6-.2.5-.4 1.1-.5 2-.1.9-.2 1.9-.2 3.2v28.8c0 2.5.3 4.2.8 5.2.3.6.8 1.2 1.5 1.6.7.4 1.5.7 2.6.9l.3.1.1.3.2.5.1.3-.2.3-.4.5-.2.3h-17.5l-.2-.2-.4-.5-.3-.3.2-.4.3-.5.1-.3h.3c1.1-.2 2-.5 2.7-.9.7-.4 1.2-.9 1.5-1.5.5-1 .8-2.7.8-5.2V59.7H394v13.6c0 2.5.3 4.3.8 5.3.3.6.9 1.1 1.5 1.5.7.4 1.6.7 2.7.8h.3l.1.3.2.5.1.3-.2.3-.4.5-.2.2H382l-.4-.5-.2-.3.1-.3.2-.5.1-.3.3-.1c.9-.2 1.6-.5 2.2-.9.6-.4 1-1 1.3-1.7.2-.4.3-1.1.4-1.9.1-.8.1-1.9.1-3.1V44.6zm105.1 12.7c-1.1 3.2-2.4 6.2-3.9 8.9-1.4 2.6-3 4.9-4.8 7 2 2.1 3.8 3.8 5.6 4.8 1.8 1.1 3.6 1.7 5.2 1.7h.6c.6 0 1.1 0 1.6-.1s.9-.2 1.3-.3l.6-.2.2.6.4 1.1.2.6-.6.2c-2.8.7-5.7 1.3-8.8.8-3-.5-6.1-2.1-9.5-5.6-2.3 2.4-4.8 4.3-7.5 5.6-2.9 1.4-6 2-9.3 2-2 0-3.9-.3-5.7-.8-1.7-.5-3.3-1.3-4.8-2.4-1.6-1.2-2.8-2.6-3.6-4.2-.8-1.6-1.2-3.4-1.2-5.4 0-6 4-10.6 12.1-13.9-1-1-2.1-2.4-3.1-4.1-.5-.8-.9-1.7-1.1-2.7-.3-.9-.4-1.9-.4-3 0-3.2 1.2-5.8 3.6-7.8 1.1-.9 2.3-1.7 3.7-2.1 1.4-.5 2.9-.7 4.5-.7 1.4 0 2.7.2 3.9.5 1.2.3 2.3.8 3.2 1.4 1.1.8 2 1.7 2.6 2.8.6 1.1.9 2.3.9 3.7 0 4.4-3 8.1-8.9 10.9 1.7 1.7 3.3 3.5 5.1 5.5 1.8 2.1 3.7 4.4 5.6 6.9.2.2.4.5.7.9.2.3.5.6.8 1 1-1.4 2-2.8 2.8-4.2.9-1.6 1.7-3.1 2.3-4.6.3-.7.5-1.3.6-1.9.1-.5.2-1 .2-1.4 0-1.6-1.4-2.5-4.1-2.7h-.6v-2.2h13.9v2h-.6c-1 0-1.8.1-2.5.4-.5.2-.9.6-1.2 1zm-25.1-2.9c1.6-.9 2.8-2 3.6-3.3.9-1.3 1.3-2.9 1.3-4.6 0-4.3-1.8-6.4-5.3-6.4-1.7 0-3 .4-3.8 1.3-.8.9-1.3 2.2-1.3 4 0 .8.1 1.7.5 2.5.3.9.8 1.7 1.4 2.6.2.3.7.9 1.4 1.6.5.6 1.3 1.4 2.2 2.3zm-4.6 5.2c-2.2 1.3-3.9 2.8-5 4.4-1.2 1.7-1.7 3.7-1.7 5.9 0 1.4.3 2.7.8 3.9.5 1.2 1.3 2.3 2.3 3.3 1 1 2.2 1.8 3.4 2.3 1.2.5 2.5.8 4 .8 2.2 0 4.4-.5 6.4-1.5 1.9-.9 3.8-2.3 5.6-4.1-.6-.7-1.4-1.4-2.3-2.3-1.1-1.1-2.4-2.3-3.8-3.7-4.1-3.8-7.4-6.9-9.7-9zm58.9-1.7v14.9c0 3.3.9 5.4 2.6 6.3.5.3 1.4.5 2.7.7 1.3.2 2.9.2 4.9.2 5.1 0 8.9-.9 11.4-2.8 2.4-1.8 3.7-4.5 3.7-8.1 0-4-1.6-6.9-4.8-8.8-1.3-.8-2.9-1.4-4.6-1.8-1.8-.4-3.7-.6-5.9-.6h-10zm14.2 25.4h-28.5l-.2-.2-.5-.5-.4-.4.3-.4.4-.5.2-.2h.3c1.3-.1 2.5-.4 3.4-.7.9-.3 1.5-.8 2-1.3s.8-1.2 1-2.2c.2-.9.4-2.1.4-3.4V44.6c0-2.5-.4-4.3-1.1-5.4-.4-.6-1-1.1-1.8-1.4-.8-.4-1.8-.6-3-.8h-.3l-.2-.3-.3-.5-.2-.4.3-.3.4-.5.2-.2h.3l9.4-.4 11.8-.1c7.4 0 12.9.9 16.7 2.8 1.9 1 3.3 2.2 4.3 3.8 1 1.5 1.5 3.3 1.5 5.3v.1c0 1.5-.4 2.8-1.1 4.1-.7 1.2-1.7 2.4-3.1 3.4-1.1.8-2.3 1.4-3.7 2-.5.2-1.1.4-1.7.6 3.8.9 6.8 2.3 9 4 2.7 2.2 4 4.9 4 8.3 0 2.6-.5 4.8-1.6 6.7-1.1 1.9-2.7 3.6-4.8 4.9-1.8 1-3.7 1.8-6 2.3-2.3.4-4.7.7-7.4.7zM520.6 55h10.2c4 0 7.1-.7 9-2.2 1.9-1.4 2.9-3.6 2.9-6.5 0-6.3-4.4-9.3-13.3-9.2h-8.8V55zm58.7 6.4v12c0 1.3.1 2.4.3 3.3.2.9.4 1.6.8 2.1.4.6 1 1 1.7 1.4.8.4 1.8.6 3 .8h.3l.2.3.3.5.2.4-.3.3-.5.5-.2.2h-19l-.2-.2-.4-.5-.3-.3.2-.4.3-.5.2-.3h.3c1.2-.1 2.1-.4 2.9-.8.7-.4 1.3-.9 1.7-1.5.3-.5.6-1.2.8-2.1.2-.9.3-2 .3-3.3V44.6c0-2.5-.3-4.2-.8-5.3-.3-.6-.9-1.1-1.5-1.5-.7-.4-1.6-.7-2.7-.9h-.3l-.1-.3-.3-.5-.2-.4.3-.3.4-.5.2-.2h.3l8.6-.3 12.7-.2c2.8 0 5.3.1 7.6.5s4.5.9 6.3 1.7c2.7 1.1 4.7 2.5 6.1 4.3 1.4 1.8 2.1 4 2.1 6.5 0 6.4-4 10.6-12 12.4.9.4 1.7.8 2.4 1.3 1.3.8 2.5 1.7 3.5 2.7.7.7 1.4 1.6 2.2 2.6.8 1.1 1.7 2.4 2.6 3.8.9 1.5 1.8 2.8 2.6 3.9s1.4 1.9 2 2.5c2.8 3 5.8 4.6 9 4.8h.3l.2.3c.2.3.3.5.3.8 0 .2 0 .4-.1.5 0 .2-.1.3-.2.5l-.2.2h-.3c-4.4.4-8.6-.1-12.2-1.8-3.3-1.5-6.2-4.1-8.2-7.7-.4-.7-.8-1.4-1.1-2-.4-.7-.8-1.5-1.3-2.3-1.5-2.6-3.2-4.6-5.1-6-1.9-1.4-4.1-2.3-6.6-2.7h-9.1zm1 17.4zm0 0zm-1-20.2h9.2c4.4 0 7.7-.9 9.9-2.7 2.2-1.8 3.3-4.4 3.3-8v-.2c0-7.1-4.3-10.6-13-10.5h-9.4v21.4zm96.1.4c0-3.2-.5-6.2-1.4-8.8-.9-2.6-2.1-5-3.8-7-1.8-2.2-3.9-3.9-6.4-4.9-2.5-1.1-5.3-1.7-8.4-1.7-3.1 0-5.9.6-8.2 1.7-2.4 1.1-4.4 2.8-6.1 5-1.5 2-2.7 4.3-3.4 6.9-.7 2.6-1.1 5.6-1 8.8 0 3.2.5 6.2 1.4 8.8.9 2.6 2.1 5 3.8 7 1.8 2.2 3.9 3.8 6.4 4.9 2.5 1.1 5.3 1.7 8.4 1.7 3.1 0 5.9-.6 8.3-1.7 2.4-1.1 4.4-2.8 6.1-5 1.5-2 2.6-4.3 3.4-6.9.6-2.7.9-5.6.9-8.8zm8.8 0c0 3.8-.8 7.3-2.2 10.5-1.4 3.1-3.6 5.9-6.4 8.3-2.7 2.2-5.7 3.9-9 5.1-3.3 1.1-6.9 1.7-10.8 1.7-3.9 0-7.5-.6-10.8-1.7-3.3-1.1-6.2-2.8-8.8-5.1-2.8-2.4-4.9-5.1-6.2-8.2-1.4-3.1-2.1-6.6-2.1-10.5 0-3.9.7-7.4 2.1-10.5 1.4-3.1 3.6-5.9 6.4-8.3 2.7-2.2 5.7-3.9 9-5.1 3.3-1.1 6.9-1.7 10.8-1.7 3.9 0 7.5.6 10.7 1.7 3.3 1.1 6.2 2.8 8.9 5.1 2.8 2.4 4.9 5.2 6.3 8.3 1.4 3 2.1 6.5 2.1 10.4zm69.7-15.6c.2-.5.3-1 .4-1.5.1-.5.1-1 .1-1.5 0-.9-.3-1.7-.9-2.3-.7-.6-1.7-1-3.1-1.3l-.4-.1-.1-.4-.2-.5-.1-.2.1-.2.3-.5.2-.3h14.4l.2.3.3.5.1.2-.1.2-.1.5-.1.3-.3.1c-1.5.4-2.9 1.3-4 2.6-1.2 1.3-2.3 3.2-3.1 5.4l-14.8 38.8-.1.2-.2.1c-.3.2-.6.3-.8.4-.3.1-.5.1-.8.1-.2 0-.5-.1-.7-.2-.2-.1-.5-.2-.8-.4l-.2-.1-.1-.2L728 55l-11 28.7-.1.2-.2.1c-.3.2-.6.3-.9.4-.3.1-.6.1-.8.1-.2 0-.5-.1-.7-.1-.2-.1-.5-.2-.8-.4l-.2-.1-.1-.2-16.3-41.2c-.5-1.3-1.1-2.4-1.8-3.3-.7-.8-1.4-1.4-2.3-1.7-.3-.1-.7-.3-1.2-.4-.4-.1-.9-.2-1.5-.3l-.4-.1-.1-.4-.2-.5-.1-.2.1-.2.3-.5.2-.3h17.4l.2.3.3.5.1.2-.1.2-.2.5-.1.4-.4.1c-1.2.2-2.1.5-2.7 1-.5.4-.8 1-.8 1.8 0 .5.1 1.1.2 1.7.1.6.3 1.3.6 2l12.2 29.6 10.1-26.3-3.3-8.4c-.4-.7-.8-1.3-1.4-1.6-.5-.4-1.2-.5-2-.5h-.6V35l.1-.4.1-.5H731l.1.5.1.4v1.2l-.7-.1-.6-.1c-1 0-1.5.4-1.5 1.1v.3c0 .1 0 .2.1.4l14.1 35 11.3-29.4z"/><path fill="#3e4856" d="M234.2 145.8l-.1.1c-1.5 0-2.5-.1-2.8-.1-1.3 0-2.5 0-3.6.1l-.1-.1v-.7l.1-.1.9-.1c.4 0 .6-.2.6-.4 0-.1-.1-.5-.3-1l-.8-2.2h-5.3l-.5 1.3c-.3 1-.5 1.6-.5 1.8 0 .3.2.4.5.5.2 0 .5.1 1.1.1l.1.1v.7l-.1.1c-1.3 0-2.1-.1-2.5-.1-.3 0-1 0-2.1.1l-.1-.1v-.7l.1-.1c.7 0 1.2-.2 1.3-.4.2-.2.8-1.7 1.8-4.4l2.7-6.8c.2-.5.5-1.3.9-2.4h1.5l5.5 13c.2.5.4.8.6.8.2.1.6.1 1 .1l.1.1v.8zm-6.6-5.6l-2.2-5.5-2.1 5.5h4.3zm23.2 5.6l-.1.1c-1 0-1.6-.1-1.8-.1h-1.7c-.2 0-.4-.1-.6-.2-.4-.3-.9-.8-1.5-1.5l-4.9-5.4v2.5c0 1.7 0 2.7.1 3.2 0 .2.2.3.4.4.1 0 .5.1 1.2.1l.1.1v.7l-.1.1c-.7 0-1.8-.1-3.2-.1-1.5 0-2.6 0-3.2.1l-.1-.1v-.7l.1-.1c.7 0 1.1-.1 1.2-.1.2-.1.3-.2.4-.4.1-.5.1-1.6.1-3.2v-5.5c0-1.7 0-2.7-.1-3.2 0-.2-.2-.3-.4-.4-.1 0-.5-.1-1.2-.1l-.1-.1v-.7l.1-.1c.7 0 1.7.1 3.2.1 1.5 0 2.6 0 3.2-.1l.1.1v.7l-.1.1c-.7 0-1.1.1-1.2.1-.2.1-.3.2-.4.4-.1.5-.1 1.6-.1 3.2v2.6c.3-.4 1.1-1.1 2.2-2.3.6-.6 1-1.1 1.3-1.3.7-.8 1.1-1.3 1.4-1.6.4-.5.6-.8.6-1 0-.1 0-.1-.1-.2l-.1-.1v-.6l.1-.1c.8 0 1.5.1 2.1.1.5 0 1.1 0 2-.1l.1.1v.7l-.1.1c-.8 0-1.3.1-1.7.3-.3.1-.8.5-1.4 1-.7.6-1.6 1.4-2.7 2.5-.4.4-1 .9-1.6 1.6l6 6.2c.8.9 1.6 1.4 2.3 1.5l.1.1v.6zm16.4 0l-.1.1c-1.5 0-2.5-.1-2.8-.1-1.3 0-2.5 0-3.6.1l-.1-.1v-.7l.1-.1.9-.1c.4 0 .6-.2.6-.4 0-.1-.1-.5-.3-1l-.8-2.2h-5.3l-.5 1.3c-.3 1-.5 1.6-.5 1.8 0 .3.2.4.5.5.2 0 .5.1 1.1.1l.1.1v.7l-.1.1c-1.3 0-2.1-.1-2.5-.1-.3 0-1 0-2.1.1l-.1-.1v-.7l.1-.1c.7 0 1.2-.2 1.3-.4.2-.2.8-1.7 1.8-4.4l2.7-6.8c.2-.5.5-1.3.9-2.4h1.5l5.5 13c.2.5.4.8.6.8.2.1.6.1 1 .1l.1.1v.8zm-6.7-5.6l-2.2-5.5-2.1 5.5h4.3zm23.4 4.8c-.3 1.1-.6 2.8-1 5.1l-.1.1h-.7l-.1-.1V148c0-1-.1-1.5-.3-1.7-.1-.1-.3-.2-.4-.2-.2 0-.8-.1-1.8-.1h-7.8c-.8 0-1.3.3-1.4.8-.1.3-.1 1.4-.2 3.3l-.1.1h-.7l-.1-.1-.4-2c-.1-.4-.2-.9-.3-1.3l-.4-1.7.1-.3c.6 0 1 .1 1.3.1h.4c.3-.4.6-.9 1-1.5l6.6-10.3c.1-.2.2-.3.2-.4 0-.2-.9-.4-2.8-.6l-.1-.1v-.7l.1-.1c.7 0 1.9.1 3.7.1 1.8 0 3 0 3.4-.1l.1.1c-.1 2.4-.1 4-.1 4.6v4.5c0 1.3 0 2.8.1 4.5h.3c.3 0 .7 0 1.4-.1l.1.2zm-4.8-4.1v-8.3h-.3c-.3.4-.6 1-1.1 1.8l-5.9 10.4h7.3v-3.9zm17.6 1.5c-.2 1-.2 2.2-.2 3.4l-.1.1-7.6-.1c-1.3 0-2.2 0-2.7.1l-.1-.1v-.3l.1-.1c.5-.3.8-.5.8-.6.1-.1.1-.6.1-1.4v-7.6c0-1.7 0-2.7-.1-3.2 0-.2-.2-.3-.4-.4-.1 0-.5-.1-1.2-.1l-.1-.1v-.7l.1-.1c.7 0 1.8.1 3.3.1 1.3 0 3.8 0 7.5-.1l.1.1-.1 1.2c0 .4-.1.7-.1.9l-.1 1-.1.1h-.6l-.1-.1c0-.9-.1-1.5-.2-1.6-.1-.1-.4-.2-1.1-.2-.7-.1-1.3-.1-1.8-.1-.6 0-1.2 0-1.8.1-.1.7-.1 1.7-.1 3v2.2c.5 0 1 .1 1.3.1h1.4c.6 0 1-.1 1.1-.2.1-.1.2-.6.2-1.4l.1-.1h.6l.1.1v4.4l-.1.1h-.7l-.1-.1c0-.8-.1-1.3-.2-1.4-.1-.2-.4-.3-1-.3-.4 0-.9-.1-1.4-.1-.5 0-1 0-1.4.1v3.2c0 .9 0 1.8.1 2.6h1.4c2 0 3.3-.1 3.7-.2.1 0 .1-.1.2-.1.1-.1.1-.3.2-.6l.3-1.3.1-.1h.6l.1-.1zm21.5 3.4l-.1.1c-.7 0-1.8-.1-3.2-.1-1.5 0-2.6 0-3.2.1l-.1-.1v-.7l.1-.1c.7 0 1.1-.1 1.2-.1.2-.1.3-.2.4-.4.1-.5.1-1.6.1-3.2v-7.1L311 139c-.1.3-.6 1.2-1.4 2.9l-1.9 4.2h-.7c-.4-.9-.9-2-1.5-3.3l-1.5-3.1-2.7-5.7v7.2c0 1.7 0 2.7.1 3.2 0 .2.2.3.4.4.1 0 .5.1 1.2.1l.1.1v.7l-.1.1c-.8 0-1.5-.1-2.2-.1-.8 0-1.6 0-2.4.1l-.1-.1v-.7l.1-.1c.7 0 1.1-.1 1.2-.1.2-.1.3-.2.4-.4.1-.5.1-1.6.1-3.2v-5.5c0-1.7 0-2.7-.1-3.2 0-.2-.2-.3-.4-.4-.1 0-.5-.1-1.2-.1l-.1-.1v-.7l.1-.1c.7 0 1.6.1 2.7.1.8 0 1.6 0 2.2-.1.2.5.6 1.3 1 2.2l.7 1.4 3.3 6.9 1.6-3.2 2.5-5.3c.3-.6.6-1.3.9-2 .8 0 1.3.1 1.6.1 1.4 0 2.4 0 3.1-.1l.1.1v.7l-.1.1c-.7 0-1.1.1-1.2.1-.2.1-.3.2-.4.4-.1.5-.1 1.6-.1 3.2v5.5c0 1.7 0 2.7.1 3.2 0 .2.2.3.4.4.1 0 .5.1 1.2.1l.1.1v.8zm17.5 0l-.1.1c-1.4 0-2.5-.1-3.3-.1-1.5 0-2.6 0-3.2.1l-.1-.1v-.7l.1-.1c.7 0 1.1-.1 1.2-.1.2-.1.3-.2.4-.4.1-.5.1-1.6.1-3.2v-7.7l-6.5 12.3h-4.7l-.1-.1v-.7l.1-.1c.7 0 1.1-.1 1.2-.1.2-.1.3-.2.4-.4.1-.5.1-1.6.1-3.2v-5.5c0-1.7 0-2.7-.1-3.2 0-.2-.2-.3-.4-.4-.1 0-.5-.1-1.2-.1l-.1-.1v-.7l.1-.1c1.1 0 2.2.1 3.2.1.7 0 1.8 0 3.2-.1l.1.1v.7l-.1.1c-.7 0-1.1.1-1.2.1-.2.1-.3.2-.4.4-.1.5-.1 1.6-.1 3.2v7.9l6.5-12.5c.9 0 1.5.1 1.9.1.2 0 1.2 0 2.9-.1l.1.1v.7l-.1.1c-.7 0-1.1.1-1.2.1-.2.1-.3.2-.4.4-.1.5-.1 1.6-.1 3.2v5.5c0 1.7 0 2.7.1 3.2 0 .2.2.3.4.4.1 0 .5.1 1.2.1l.1.1v.7zm15.7 0l-.1.1c-1.1 0-2.1-.1-3.2-.1s-2.2 0-3.3.1l-.1-.1v-.7l.1-.1c.7 0 1.1-.1 1.2-.1.2-.1.3-.2.4-.4.1-.5.1-1.6.1-3.2v-5.6c0-2 0-3.2-.1-3.3-.7-.1-1.2-.1-1.6-.1-2.3 0-3.4.9-3.4 2.7 0 1 .4 1.8 1.3 2.4.4.3.8.4 1.2.5.4.1 1 .1 1.9.2v.3c-.7.9-1.6 2.3-2.7 4.1-1.1 1.8-1.8 2.9-2.1 3.4-.7 0-1.3-.1-1.9-.1-.5 0-1.3 0-2.4.1l-.1-.1v-.7l.1-.1c.8-.1 1.6-.6 2.3-1.5.5-.8 1.1-1.6 1.6-2.5.7-1 1.3-1.9 1.7-2.5l-.1-.1c-1.1-.1-2.1-.5-2.8-1.1-.8-.7-1.3-1.6-1.3-2.6 0-1.3.5-2.2 1.6-2.8.8-.5 2-.7 3.4-.7h3.8c1.7 0 3.1 0 4.1-.1l.1.1v.7l-.1.1c-.7 0-1.1.1-1.2.1-.2.1-.3.2-.4.4-.1.5-.1 1.6-.1 3.2v5.5c0 1.7 0 2.7.1 3.2 0 .2.2.3.4.4.1 0 .5.1 1.2.1l.1.1v.8zm22.2-.8c-.3 1.1-.6 2.8-1 5.1l-.1.1h-.7l-.1-.1-.1-2.1c0-1-.1-1.5-.3-1.7-.1-.1-.3-.2-.4-.2-.2 0-.8-.1-1.8-.1h-7.8c-.8 0-1.3.3-1.4.8-.1.3-.1 1.4-.2 3.3l-.1.1h-.6l-.1-.1-.4-2c-.1-.4-.2-.9-.3-1.3l-.4-1.7.1-.3c.6 0 1 .1 1.3.1h.4c.3-.4.6-.9 1-1.5l6.6-10.3c.1-.2.2-.3.2-.4 0-.2-.9-.4-2.8-.6l-.1-.1v-.7l.1-.1c.7 0 1.9.1 3.7.1 1.8 0 3 0 3.4-.1l.1.1c-.1 2.4-.1 4-.1 4.6v4.5c0 1.3 0 2.8.1 4.5h.3c.3 0 .7 0 1.4-.1l.1.2zm-4.8-4.1v-8.3h-.3c-.3.4-.6 1-1.1 1.8l-5.9 10.4h7.3v-3.9zm22.3 4.9l-.1.1c-1.4 0-2.5-.1-3.3-.1-1.5 0-2.6 0-3.2.1l-.1-.1v-.7l.1-.1c.7 0 1.1-.1 1.2-.1.2-.1.3-.2.4-.4.1-.5.1-1.6.1-3.2v-7.7l-6.5 12.3H375l-.1-.1v-.7l.1-.1c.7 0 1.1-.1 1.2-.1.2-.1.3-.2.4-.4.1-.5.1-1.6.1-3.2v-5.5c0-1.7 0-2.7-.1-3.2 0-.2-.2-.3-.4-.4-.1 0-.5-.1-1.2-.1l-.1-.1v-.7l.1-.1c1.1 0 2.2.1 3.2.1.7 0 1.8 0 3.2-.1l.1.1v.7l-.1.1c-.7 0-1.1.1-1.2.1-.2.1-.3.2-.4.4-.1.5-.1 1.6-.1 3.2v7.9l6.5-12.5c.9 0 1.5.1 1.9.1.2 0 1.2 0 2.9-.1l.1.1v.7h-.1c-.7 0-1.1.1-1.2.1-.2.1-.3.2-.4.4-.1.5-.1 1.6-.1 3.2v5.5c0 1.7 0 2.7.1 3.2 0 .2.2.3.4.4.1 0 .5.1 1.2.1l.1.1v.8zm12.6-4.7c0 1.7-.6 3-1.9 3.9-1.1.8-2.6 1.2-4.3 1.2-1.9 0-3.5-.4-4.6-1.2l-.1-.2c0-.5.1-1 .1-1.4 0-.4 0-1-.1-1.8l.1-.1h.6l.1.1c.2 1.1.6 2 1.1 2.6.6.7 1.4 1 2.3 1 1.1 0 2-.4 2.7-1.1.6-.7.9-1.6.9-2.7s-.4-1.9-1.1-2.5c-.7-.5-1.5-.8-2.6-.8-.5 0-.9 0-1.4.1l-.1-.1v-1l.1-.1h.9c.6 0 1.1-.1 1.5-.2.4-.2.8-.5 1.1-1 .3-.4.4-1 .4-1.6 0-.4-.1-.8-.3-1.2-.4-.8-1.1-1.2-2.1-1.2-.7 0-1.2.2-1.8.7-.5.4-.8 1-1 1.8l-.1.1h-.5l-.1-.1c0-1-.1-1.8-.2-2.3l.1-.1c1.3-.8 2.7-1.1 4.2-1.1 1.2 0 2.2.2 3 .6 1 .5 1.6 1.3 1.6 2.5 0 .9-.4 1.7-1.1 2.3-.6.5-1.4.9-2.4 1v.2c2.2 0 3.7.5 4.3 1.6.5.6.7 1.3.7 2.1m16.5 4.7l-.1.1c-1.5 0-2.5-.1-2.8-.1-1.3 0-2.5 0-3.6.1l-.1-.1v-.7l.1-.1.9-.1c.4 0 .6-.2.6-.4 0-.1-.1-.5-.3-1l-.8-2.2h-5.3l-.5 1.3c-.3 1-.5 1.6-.5 1.8 0 .3.2.4.5.5.2 0 .5.1 1.1.1l.1.1v.7l-.1.1c-1.3 0-2.1-.1-2.5-.1-.3 0-1 0-2.1.1l-.1-.1v-.7l.1-.1c.7 0 1.2-.2 1.3-.4.2-.2.8-1.7 1.8-4.4l2.7-6.8c.2-.5.5-1.3.9-2.4h1.5l5.5 13c.2.5.4.8.6.8.2.1.6.1 1 .1l.1.1v.8zm-6.6-5.6l-2.2-5.5-2.1 5.5h4.3zm23.9 5.6l-.1.1c-1.4 0-2.5-.1-3.3-.1-1.5 0-2.6 0-3.2.1l-.1-.1v-.7l.1-.1c.7 0 1.1-.1 1.2-.1.2-.1.3-.2.4-.4.1-.5.1-1.6.1-3.2v-7.7l-6.5 12.3h-4.7l-.1-.1v-.7l.1-.1c.7 0 1.1-.1 1.2-.1.2-.1.3-.2.4-.4.1-.5.1-1.6.1-3.2v-5.5c0-1.7 0-2.7-.1-3.2 0-.2-.2-.3-.4-.4-.1 0-.5-.1-1.2-.1l-.1-.1v-.7l.1-.1c1.1 0 2.2.1 3.2.1.7 0 1.8 0 3.2-.1l.1.1v.7l-.1.1c-.7 0-1.1.1-1.2.1-.2.1-.3.2-.4.4-.1.5-.1 1.6-.1 3.2v7.9l6.5-12.5c.9 0 1.5.1 1.9.1.2 0 1.2 0 2.9-.1l.1.1v.7l-.1.1c-.7 0-1.1.1-1.2.1-.2.1-.3.2-.4.4-.1.5-.1 1.6-.1 3.2v5.5c0 1.7 0 2.7.1 3.2 0 .2.2.3.4.4.1 0 .5.1 1.2.1l.1.1v.7zm-5.2-19.3l.4.8c-.9 1.3-2 2-3.5 2-.4 0-.7 0-1.1-.1-.3-.1-.7-.2-.9-.4-.3-.2-.7-.5-1.1-1v-.3l.9-.8h.3c.6 1 1.5 1.5 2.6 1.5.4 0 .8-.1 1.1-.2.3-.1.6-.3.7-.6.1-.2.2-.5.2-.7l.4-.2zm23 19.3l-.1.1c-.7 0-1.8-.1-3.2-.1-1.5 0-2.6 0-3.2.1l-.1-.1v-.7l.1-.1c.7 0 1.1-.1 1.2-.1.2-.1.3-.2.4-.4.1-.5.1-1.6.1-3.2v-2.5c-.4 0-1.5-.1-3.4-.1-1.8 0-2.9 0-3.5.1v2.5c0 1.7 0 2.7.1 3.2 0 .2.2.3.4.4.1 0 .5.1 1.2.1l.1.1v.7l-.1.1c-.7 0-1.8-.1-3.2-.1-1.5 0-2.6 0-3.2.1l-.1-.1v-.7l.1-.1c.7 0 1.1-.1 1.2-.1.2-.1.3-.2.4-.4.1-.5.1-1.6.1-3.2v-5.5c0-1.7 0-2.7-.1-3.2 0-.2-.2-.3-.4-.4-.1 0-.5-.1-1.2-.1l-.1-.1v-.7l.1-.1c.7 0 1.7.1 3.2.1 1.5 0 2.6 0 3.2-.1l.1.1v.7l-.1.1c-.7 0-1.1.1-1.2.1-.2.1-.3.2-.4.4-.1.5-.1 1.6-.1 3.2v1.7c.7 0 1.8.1 3 .1 2 0 3.3 0 3.8-.1v-1.7c0-1.7 0-2.7-.1-3.2 0-.2-.2-.3-.4-.4-.1 0-.5-.1-1.2-.1l-.1-.1v-.7l.1-.1c.7 0 1.7.1 3.2.1 1.5 0 2.6 0 3.2-.1l.1.1v.7l-.1.1c-.7 0-1.1.1-1.2.1-.2.1-.3.2-.4.4-.1.5-.1 1.6-.1 3.2v5.5c0 1.7 0 2.7.1 3.2 0 .2.2.3.4.4.1 0 .5.1 1.2.1l.1.1v.7zm16.8 0l-.1.1c-1.5 0-2.5-.1-2.8-.1-1.3 0-2.5 0-3.6.1l-.1-.1v-.7l.1-.1.9-.1c.4 0 .6-.2.6-.4 0-.1-.1-.5-.3-1l-.8-2.2h-5.3l-.5 1.3c-.3 1-.5 1.6-.5 1.8 0 .3.2.4.5.5.2 0 .5.1 1.1.1l.1.1v.7l-.1.1c-1.3 0-2.1-.1-2.5-.1-.3 0-1 0-2.1.1l-.1-.1v-.7l.1-.1c.7 0 1.2-.2 1.3-.4.2-.2.8-1.7 1.8-4.4l2.7-6.8c.2-.5.5-1.3.9-2.4h1.5l5.5 13c.2.5.4.8.6.8.2.1.6.1 1 .1l.1.1v.8zm-6.6-5.6l-2.2-5.5-2.1 5.5h4.3zm25.4.9c0 1.7-.8 3.1-2.5 4.1-.8.5-1.9.7-3.2.7h-1l-2.5-.1c-.9 0-1.6 0-2.1.1l-.1-.1v-.3l.1-.1c.5-.3.8-.5.8-.6.1-.1.1-.6.1-1.4v-7.6c0-1.7 0-2.7-.1-3.2 0-.2-.2-.3-.4-.4-.1 0-.5-.1-1.2-.1l-.1-.1v-.7l.1-.1c.6 0 1.7.1 3.2.1 1 0 1.8 0 2.6-.1h1.6c1.9 0 3.2.4 3.8 1.3.3.5.5 1 .5 1.6 0 1-.4 1.8-1.2 2.5-.4.3-.8.5-1.1.7-.5.2-1 .3-1.5.4 2.7.1 4.2 1.2 4.2 3.4m-3.7-6.6c0-1.5-.8-2.3-2.4-2.3-.5 0-1 0-1.3.1v4.9h1c1.3 0 2.1-.4 2.5-1.2.1-.4.2-.9.2-1.5zm.5 7c0-2.1-1.1-3.1-3.3-3.1h-.9v6.3c.3 0 .7.1 1.2.1 1 0 1.7-.3 2.3-.9.4-.6.7-1.4.7-2.4zm16.3-.4c0 1.7-.6 3-1.9 3.9-1.1.8-2.6 1.2-4.3 1.2-1.9 0-3.5-.4-4.6-1.2l-.1-.2c0-.5.1-1 .1-1.4 0-.4 0-1-.1-1.8l.1-.1h.6l.1.1c.2 1.1.6 2 1.1 2.6.6.7 1.4 1 2.3 1 1.1 0 2-.4 2.7-1.1.6-.7.9-1.6.9-2.7s-.4-1.9-1.1-2.5c-.7-.5-1.5-.8-2.6-.8-.5 0-.9 0-1.4.1l-.1-.1v-1l.1-.1h.9c.6 0 1.1-.1 1.5-.2.4-.2.8-.5 1.1-1 .3-.4.4-1 .4-1.6 0-.4-.1-.8-.3-1.2-.4-.8-1.1-1.2-2.1-1.2-.7 0-1.2.2-1.8.7-.5.4-.8 1-1 1.8l-.1.1h-.4l-.1-.1c0-1-.1-1.8-.2-2.3l.1-.1c1.3-.8 2.7-1.1 4.2-1.1 1.2 0 2.2.2 3 .6 1 .5 1.6 1.3 1.6 2.5 0 .9-.4 1.7-1.1 2.3-.6.5-1.4.9-2.4 1v.2c2.2 0 3.7.5 4.3 1.6.4.6.6 1.3.6 2.1m12.4-9.9c-.1.6-.1 1.8-.1 3.4l-.1.1h-.7l-.1-.1v-.4c0-.5 0-.8-.1-.9-.1-.4-.2-.7-.3-.8-.2-.2-.9-.2-2-.2h-3.1v9c0 1.7 0 2.7.1 3.2 0 .2.2.3.4.4.1 0 .5.1 1.2.1l.1.1v.7l-.1.1h-3.2c-.7 0-1.8 0-3.2.1l-.1-.1v-.7l.1-.1c.7 0 1.1-.1 1.2-.1.2-.1.3-.2.4-.4.1-.5.1-1.6.1-3.2v-5.5c0-1.7 0-2.7-.1-3.2 0-.2-.2-.3-.4-.4-.1 0-.5-.1-1.2-.1l-.1-.1v-.7l.1-.1 2.5.1c4.5 0 7.3 0 8.6-.1l.1-.1zm16 14.6H529c-1.5 0-2.5 0-3.1.1l-.1-.1v-.7l.1-.1c.7 0 1.1-.1 1.2-.1.2-.1.3-.2.4-.4.1-.5.1-1.6.1-3.2v-8.6h-.3c-.4.6-.9 1.5-1.6 2.7l-1.9 3.1c-1.5 2.5-2.5 4.2-2.9 5.2-.2.4-.3.7-.3.8 0 .2.2.4.6.5.3.1.6.1.9.1l.1.1v.7l-.1.1c-1 0-2-.1-2.8-.1-.5 0-1.2 0-2.3.1l-.1-.1v-.7l.1-.1.7-.1c.2 0 .4-.1.5-.2.2-.1.5-.5 1-1.1.9-1.2 1.6-2.3 2.1-3.1l4.9-7.7c.1-.1.1-.2.1-.2 0-.2-.9-.4-2.8-.6l-.1-.1v-.7l.1-.1c.3 0 1.5 0 3.6.1 1.7 0 2.8 0 3.4-.1l.1.1v2.1c0 1.7-.1 3.2-.1 4.4v3.5c0 1.7 0 2.7.1 3.2 0 .2.2.3.4.4.1 0 .5.1 1.2.1l.1.1v.7zm15.5 0l-.1.1c-1.1 0-2.1-.1-3.2-.1s-2.2 0-3.3.1l-.1-.1v-.7l.1-.1c.7 0 1.1-.1 1.2-.1.2-.1.3-.2.4-.4.1-.5.1-1.6.1-3.2v-5.6c0-2 0-3.2-.1-3.3-.7-.1-1.2-.1-1.6-.1-2.3 0-3.4.9-3.4 2.7 0 1 .4 1.8 1.3 2.4.4.3.8.4 1.2.5.4.1 1 .1 1.9.2v.3c-.7.9-1.6 2.3-2.7 4.1-1.1 1.8-1.8 2.9-2.1 3.4-.7 0-1.3-.1-1.9-.1-.5 0-1.3 0-2.4.1l-.1-.1v-.7l.1-.1c.8-.1 1.6-.6 2.3-1.5.5-.8 1.1-1.6 1.6-2.5.7-1 1.3-1.9 1.7-2.5l-.1-.1c-1.1-.1-2.1-.5-2.8-1.1-.8-.7-1.3-1.6-1.3-2.6 0-1.3.5-2.2 1.6-2.8.8-.5 2-.7 3.4-.7h3.8c1.7 0 3.1 0 4.1-.1l.1.1v.7l-.1.1c-.7 0-1.1.1-1.2.1-.2.1-.3.2-.4.4-.1.5-.1 1.6-.1 3.2v5.5c0 1.7 0 2.7.1 3.2 0 .2.2.3.4.4.1 0 .5.1 1.2.1l.1.1v.8zm16.9-.8c-.3 1.1-.6 2.8-1 5.1l-.1.1h-.7l-.1-.1-.1-2.1c0-1-.1-1.5-.3-1.7-.1-.1-.3-.2-.4-.2-.2 0-.8-.1-1.8-.1h-7.8c-.8 0-1.3.3-1.4.8-.1.3-.1 1.4-.2 3.3l-.1.1h-.7l-.1-.1-.4-2c-.1-.4-.2-.9-.3-1.3l-.4-1.7.1-.3c.6 0 1 .1 1.3.1h.4c.3-.4.6-.9 1-1.5l6.6-10.3c.1-.2.2-.3.2-.4 0-.2-.9-.4-2.8-.6l-.1-.1v-.7l.1-.1c.7 0 1.9.1 3.7.1 1.8 0 3 0 3.4-.1l.1.1c-.1 2.4-.1 4-.1 4.6v4.5c0 1.3 0 2.8.1 4.5h.3c.3 0 .7 0 1.4-.1l.2.2zm-4.8-4.1v-8.3h-.3c-.3.4-.6 1-1.1 1.8l-5.9 10.4h7.3v-3.9zm21.6 4.9l-.1.1c-1.5 0-2.5-.1-2.8-.1-1.3 0-2.5 0-3.6.1l-.1-.1v-.7l.1-.1.9-.1c.4 0 .6-.2.6-.4 0-.1-.1-.5-.3-1l-.8-2.2h-5.3l-.5 1.3c-.3 1-.5 1.6-.5 1.8 0 .3.2.4.5.5.2 0 .5.1 1.1.1l.1.1v.7l-.1.1c-1.3 0-2.1-.1-2.5-.1-.3 0-1 0-2.1.1l-.1-.1v-.7l.1-.1c.7 0 1.2-.2 1.3-.4.2-.2.8-1.7 1.8-4.4l2.7-6.8c.2-.5.5-1.3.9-2.4h1.5l5.5 13c.2.5.4.8.6.8.2.1.6.1 1 .1l.1.1v.8zm-6.6-5.6l-2.2-5.5-2.1 5.5h4.3zm13 5.6v-.5l.1-.1c.6 0 1-.1 1.3-.1.2 0 .4-.1.5-.2.1-.1.1-.2.2-.4 0-.2 0-.7.1-1.6v-9.1c0-.8 0-1.3-.1-1.4 0-.1-.1-.3-.2-.3-.1-.1-.2-.1-.4-.2-.2 0-.6-.1-1.3-.1l-.1-.1v-.5l.1-.1h3c.2 0 1.2 0 3-.1l.1.1v.5l-.1.1c-.6 0-1 .1-1.3.1-.2 0-.4.1-.5.2-.1.1-.1.2-.2.4 0 .2 0 .7-.1 1.6v10l.2.1c1.5-2.1 3.1-4.6 5-7.6 1.9-2.9 3-4.8 3.4-5.5.7.1 1.4.1 2 .1.7 0 1.4 0 2-.1l.1.1v.5l-.1.1c-.7 0-1.1.1-1.3.1-.2 0-.3.1-.4.2-.1.1-.1.2-.2.4 0 .2-.1.7-.1 1.6v9c0 .8 0 1.3.1 1.5 0 .2.1.4.2.4.1.1.2.2.5.2.2 0 .7.1 1.2.1l.1.1v.5l-.1.1h-3c-.2 0-1.2 0-3 .1l-.1-.1v-.5l.1-.1c.6 0 1 0 1.3-.1.2 0 .4-.1.5-.2.1-.1.1-.2.2-.4 0-.2 0-.7.1-1.6v-9.8l-.2-.1c-.6.9-2 3-4.2 6.4l-4.2 6.5c-.6-.1-1.3-.1-2.1-.1-.6-.1-1.3 0-2.1-.1zm17.9-14.7c1.8.1 2.9.1 3.3.1.7 0 1.4 0 2.2-.1h1.6c1 0 1.8.1 2.4.3.6.2 1.2.6 1.6 1.1.4.5.6 1.2.6 1.9 0 .6-.1 1.2-.4 1.8-.3.6-.7 1.1-1.2 1.5-.5.4-1.1.7-1.6.9-.5.2-1.1.3-1.7.3-.4 0-.9 0-1.4-.1l-.2-.6.1-.1c.5.1.9.2 1.3.2.9 0 1.6-.3 2.2-.9.6-.6.8-1.4.8-2.3 0-.9-.3-1.7-.9-2.3-.6-.6-1.4-.8-2.6-.8-.6 0-1.3.1-2.1.4-.1.5-.1 1.8-.1 3.9v6.8c0 .8 0 1.3.1 1.5 0 .2.1.4.2.5.1.1.2.1.4.2s.7.1 1.4.1l.1.1v.5l-.1.1c-1.8-.1-2.8-.1-3-.1-.2 0-1.2 0-3 .1l-.1-.1v-.5l.1-.1c.6 0 1.1-.1 1.3-.1.2 0 .4-.1.4-.2.1-.1.1-.2.2-.4 0-.2.1-.7.1-1.4v-9c0-.8 0-1.3-.1-1.5 0-.2-.1-.4-.1-.5-.1-.1-.2-.1-.4-.2-.2 0-.7-.1-1.4-.1l-.1-.1.1-.8zm12.8 14.7v-.5l.1-.1c.6 0 1-.1 1.3-.1.2 0 .4-.1.5-.2.1-.1.1-.2.2-.4 0-.2 0-.7.1-1.6v-9.1c0-.8 0-1.3-.1-1.4 0-.1-.1-.3-.2-.3-.1-.1-.2-.1-.4-.2-.2 0-.6-.1-1.3-.1l-.1-.1v-.5l.1-.1h3c.2 0 1.2 0 3-.1l.1.1v.5l-.1.1c-.6 0-1 .1-1.3.1-.2 0-.4.1-.5.2-.1.1-.1.2-.2.4 0 .2 0 .7-.1 1.6v10l.2.1c1.5-2.1 3.1-4.6 5-7.6 1.9-2.9 3-4.8 3.4-5.5.7.1 1.4.1 2 .1.7 0 1.4 0 2-.1l.1.1v.5l-.1.1c-.7 0-1.1.1-1.3.1-.2 0-.3.1-.4.2-.1.1-.1.2-.2.4 0 .2-.1.7-.1 1.6v9c0 .8 0 1.3.1 1.5 0 .2.1.4.2.4.1.1.3.2.5.2s.7.1 1.2.1l.1.1v.5l-.1.1h-3c-.2 0-1.2 0-3 .1l-.1-.1v-.5l.1-.1c.6 0 1 0 1.3-.1.2 0 .4-.1.5-.2.1-.1.1-.2.2-.4 0-.2 0-.7.1-1.6v-9.8l-.2-.1c-.6.9-2 3-4.2 6.4l-4.2 6.5c-.6-.1-1.3-.1-2.1-.1-.6-.1-1.3 0-2.1-.1zm17.9-14.7c1.8.1 2.8.1 3 .1.2 0 1.2 0 3-.1l.1.1v.5l-.1.1c-.5 0-.8 0-1.1.1-.3 0-.5.1-.6.2-.1.1-.2.3-.2.5 0 .3-.1.7-.1 1.2v3.9c1.5 0 3 .1 4.3.1 1.9 0 3.3 0 4.3-.1v-3.5c0-.8 0-1.3-.1-1.5 0-.2-.1-.4-.1-.5-.1-.1-.2-.1-.4-.2-.2 0-.7-.1-1.4-.1l-.1-.1v-.5l.1-.1c1.8.1 2.8.1 3 .1.2 0 1.2 0 3-.1l.1.1v.5l-.1.1c-.5 0-.9 0-1.1.1-.3 0-.5.1-.6.2-.1.1-.2.3-.2.5 0 .3-.1.7-.1 1.2v9.2c0 .8 0 1.3.1 1.5 0 .2.1.4.2.5.1.1.2.1.4.2s.6.1 1.4.1l.1.1v.5l-.1.1c-1.8-.1-2.8-.1-3-.1-.2 0-1.2 0-3 .1l-.1-.1v-.5l.1-.1c.7 0 1.1-.1 1.3-.1.2 0 .4-.1.4-.2.1-.1.1-.2.2-.4 0-.2.1-.7.1-1.4v-4.6c-2.1 0-3.5-.1-4.3-.1-.8 0-2.3 0-4.3.1v4.4c0 .8 0 1.3.1 1.5 0 .2.1.4.2.5.1.1.2.1.4.2s.7.1 1.4.1l.1.1v.5l-.1.1c-1.8-.1-2.8-.1-3-.1-.2 0-1.2 0-3 .1l-.1-.1v-.5l.1-.1c.6 0 1.1-.1 1.3-.1.2 0 .4-.1.4-.2.1-.1.1-.2.2-.4 0-.2.1-.7.1-1.4v-9c0-.8 0-1.3-.1-1.5 0-.2-.1-.4-.1-.5-.1-.1-.2-.1-.4-.2-.2 0-.7-.1-1.4-.1l-.1-.1-.1-.8zm17.7 14.7v-.5l.1-.1c.6 0 1-.1 1.3-.1.2 0 .4-.1.5-.2.1-.1.1-.2.2-.4 0-.2 0-.7.1-1.6v-9c0-.8 0-1.3-.1-1.5 0-.2-.1-.3-.2-.3-.1-.1-.2-.1-.4-.2-.2 0-.6-.1-1.3-.1l-.1-.1v-.5l.1-.1h3c.1 0 1.1 0 3-.1l.1.1v.5l-.1.1c-.7 0-1.1.1-1.3.1-.2 0-.3.1-.4.2-.1.1-.1.2-.2.4 0 .2-.1.7-.1 1.6v3.4h1.2c1.1 0 2 .1 2.8.2.8.1 1.5.3 2.1.6.6.3 1 .7 1.4 1.2.3.5.5 1.1.5 1.7 0 .8-.3 1.7-.8 2.4-.5.8-1.2 1.4-2 1.8-.8.4-1.9.6-3.3.6h-3.2c-.9-.1-1.8 0-2.9-.1zm4.1-7.6v5.3c0 .5 0 .9.1 1 0 .2.1.3.2.4.1.1.2.1.4.2.2 0 .5.1.9.1 1 0 1.8-.1 2.4-.4.6-.3 1.1-.7 1.4-1.3.3-.6.5-1.2.5-1.9 0-.6-.1-1.1-.3-1.5-.2-.4-.5-.8-.9-1.1-.4-.3-.9-.5-1.4-.5-.5-.1-1.2-.1-2-.1h-1.3zm7.4-7.1h3c.2 0 1.2 0 3-.1l.1.1v.5l-.1.1c-.5 0-.8 0-1.1.1-.3 0-.5.1-.6.2-.1.1-.2.3-.2.5 0 .3-.1.7-.1 1.2v9.2c0 .8 0 1.3.1 1.5 0 .2.1.4.2.5.1.1.2.1.4.2s.7.1 1.4.1l.1.1v.5l-.1.1s-.6 0-1.8-.1h-1.2c-.2 0-1.2 0-3 .1l-.1-.1v-.5l.1-.1c.6 0 1.1-.1 1.3-.1.2 0 .4-.1.4-.2.1-.1.1-.2.2-.4 0-.2.1-.7.1-1.4v-9c0-.8 0-1.3-.1-1.5 0-.2-.1-.4-.1-.5-.1-.1-.2-.1-.4-.2-.2 0-.7-.1-1.4-.1l-.1-.1v-.6zm11.7 14.7v-.5l.1-.1c.6 0 1-.1 1.2-.2.2-.1.5-.4.9-.9.6-.8 1.7-2.4 3.5-5l2.8-4c.9-1.2 1.4-1.9 1.5-2.2.1-.2.1-.3.1-.4 0-.2-.1-.4-.4-.5-.3-.1-1.1-.2-2.4-.2l-.1-.1v-.5l.1-.1h6l.1.1V143c0 .8 0 1.3.1 1.5 0 .2.1.4.2.4.1.1.3.2.5.2s.7.1 1.2.1l.1.1v.5l-.1.1h-3c-.1 0-1.1 0-3 .1l-.1-.1v-.5l.1-.1c.6 0 1-.1 1.3-.1.3 0 .4-.1.5-.2.1-.1.1-.2.2-.5 0-.2 0-.7.1-1.6v-10.5h-.3l-3.7 5.8-2.9 4.5c-.7 1.1-1.1 1.8-1.1 1.9 0 .1-.1.2-.1.3 0 .3.2.4.6.4h.8l.1.1v.5l-.1.1c-.7-.1-1.4-.1-2.1-.1-1-.1-1.8 0-2.7-.1zm16.6-14.6h4.7c2.3 0 4.3 0 6.1-.1l.1.1c-.2.7-.3 1.7-.4 3.1l-.1.1h-.5l-.1-.1v-.2c0-.6 0-1.2-.1-1.7-.4-.2-1-.3-1.8-.4-.8-.1-1.4-.1-1.7-.1-.5 0-1.3 0-2.1.1v5.7c.8 0 1.4.1 2.1.1.6 0 1.2 0 1.6-.1.4 0 .7-.1.8-.1.1 0 .1-.1.2-.3 0-.1.1-.4.1-.7v-.6l.1-.1h.5l.1.1c0 .8 0 1.5-.1 2.3l.1 2.3-.1.1h-.5l-.1-.1-.1-.6c-.1-.5-.1-.8-.1-.9 0-.1-.1-.2-.2-.2-.1-.1-.4-.1-.8-.2-.4 0-1-.1-1.7-.1-.4 0-1 0-1.8.1 0 .6-.1 1.6-.1 2.9 0 1.5 0 2.5.1 3.2h1.9c1.7 0 2.7 0 3.2-.1.4 0 .8-.1 1.2-.3.1-.2.2-.5.3-1.1.1-.6.2-.9.2-1.1l.1-.1h.5l.1.1c-.1.3-.1.8-.2 1.6-.1.7-.1 1.4-.1 1.9l-.1.1c-1.3 0-3.1-.1-5.2-.1h-2.8c-.7 0-1.3 0-2.1.1l-.1-.1v-.3l.1-.1c.4-.2.6-.3.7-.4.1-.1.1-.7.1-1.8 0-1.2.1-2.1.1-2.7v-7.5c0-.3 0-.6-.1-.7 0-.1-.1-.2-.1-.3 0-.1-.1-.1-.2-.1s-.3-.1-.5-.1l-.8-.1-.1-.1v-.3zm12.7.6l-.1-.6.1-.1c1.2.1 2.1.1 2.8.1.2 0 1.2 0 2.9-.1h1.2c.9 0 1.7.1 2.2.3.5.2 1 .5 1.3 1 .3.5.5 1 .5 1.6 0 .8-.3 1.5-.8 2.1-.6.7-1.5 1.1-2.7 1.4.8.1 1.4.2 1.9.3.5.1.9.3 1.3.6s.6.6.8 1.1c.2.4.3.9.3 1.5 0 .5-.1.9-.2 1.4-.1.5-.4.9-.8 1.4-.4.5-.8.9-1.4 1.2-.5.3-1.1.6-1.6.7-.6.1-1.2.2-2.1.2-.2 0-.7 0-1.5-.1h-1.5c-.5 0-1.1 0-1.7.1l-.1-.1v-.3l.1-.1c.4-.2.6-.3.7-.4.1-.1.1-.7.2-1.8 0-1.2.1-2 .1-2.7V133c0-.3 0-.6-.1-.7 0-.1-.1-.2-.1-.3-.1-.1-.1-.1-.2-.1s-.3-.1-.5-.1h-1zm3.7 5.4h1.2c1.4 0 2.4-.3 3-.8.6-.5.8-1.2.8-2.1 0-.5-.1-1-.3-1.3-.2-.4-.6-.6-1-.8-.5-.2-1.1-.3-1.9-.3-.6 0-1.2.1-1.7.2-.1.6-.1 1.7-.1 3.3v1.8zm0 7.7c.5.1 1.1.2 1.6.2 1 0 1.8-.2 2.3-.5.6-.3 1-.8 1.2-1.3.3-.6.4-1.2.4-1.9 0-1-.3-1.8-.8-2.4-.6-.6-1.8-.9-3.7-.9h-1.1v3.6l.1 3.2zm24.6.9H732c-.2 0-1.2 0-3 .1l-.1-.1v-.5l.1-.1c1.1 0 1.6-.1 1.8-.3.1-.2.2-1.5.2-4V138c-.8 1-1.6 1.6-2.4 2-.8.4-1.6.6-2.6.6s-1.9-.2-2.5-.5c-.7-.3-1.2-.8-1.5-1.5-.3-.6-.5-1.5-.5-2.7v-3.3c0-.2 0-.4-.1-.5 0-.1-.1-.2-.2-.2-.1-.1-.2-.1-.5-.2-.3 0-.7-.1-1.2-.1l-.1-.1v-.5l.1-.1 3 .1h3l.1.1v.5l-.1.1c-.8 0-1.2 0-1.4.1-.2.1-.3.1-.4.2-.1.1-.1.3-.2.7 0 .4-.1 1-.1 1.9v1.1c0 1.1.3 2 .9 2.6.6.6 1.4 1 2.5 1 .6 0 1.2-.1 1.9-.4.6-.3 1.1-.7 1.6-1.1.4-.5.6-.8.6-1.1v-2.1c0-1.4 0-2.2-.1-2.4-.1-.2-.7-.4-1.9-.4l-.1-.1v-.5l.1-.1c1.4.1 2.4.1 3 .1.4 0 1.4 0 3-.1l.1.1v.5l-.1.1c-1.1 0-1.6.1-1.8.3-.1.2-.2.9-.2 2.2v6.6c0 2.2 0 3.4.1 3.6.1.3.2.4.4.5.2.1.7.2 1.6.2l.1.1v.5zm1.2-14l-.1-.6.1-.1c.8 0 1.7.1 2.7.1.8 0 1.7 0 2.5-.1l.1.1v.5l-.1.1c-.6.1-.9.2-1.1.3-.1.1-.2.2-.2.4s.1.5.3.9c.3.6.9 1.8 1.8 3.7.9 1.7 1.4 2.7 1.5 2.8h.1s.1-.1.2-.4c.1-.2.4-.8.8-1.8l1.2-2.7c.4-.8.6-1.4.7-1.7.1-.3.2-.6.2-.7 0-.1 0-.3-.1-.3-.1-.1-.2-.2-.4-.2s-.4-.1-.9-.2l-.1-.1v-.5l.1-.1c1 0 1.8.1 2.3.1.5 0 1.2 0 1.9-.1l.1.1v.5l-.1.1c-.4.1-.8.2-1 .4-.2.2-.5.6-.9 1.3-.4.7-1 1.9-2 3.7-.7 1.4-1.3 2.7-1.9 3.7l-1.6 3c-.4.7-.7 1.2-1 1.4-.2.3-.5.4-.8.6-.3.1-.6.2-.9.2-.3 0-.7-.1-1.2-.2-.1-1.1-.2-2.2-.4-3.1l.4-.2c.3.6.5 1 .8 1.2.3.2.6.3.9.3.5 0 .9-.2 1.3-.6.4-.4.8-.9 1.1-1.5-.3-.7-1-1.9-1.9-3.7l-2.2-4.2c-.5-1-.9-1.6-1-1.8-.2-.2-.3-.3-.5-.4 0-.1-.3-.2-.7-.2m18.3 6.5l1-.8c.2-.2.5-.4.8-.7l.9-.9 2.3-2.3 1.7-1.7v-.7l.1-.1h3.4l.1.1v.5l-.1.1c-.6 0-1.1 0-1.4.1-.3.1-.6.2-1 .4-.3.2-.9.7-1.8 1.5l-4.2 3.8 6.5 6.1c1 .9 1.5 1.4 1.7 1.5.2.1.4.1.8.2l.1.1v.4l-.1.1c-1.3 0-2-.1-2.3-.1-.3 0-.5-.1-.8-.2-.3-.1-2.8-2.4-7.6-6.8v4.2c0 .8 0 1.3.1 1.5 0 .2.1.4.2.5.1.1.2.1.4.2s.7.1 1.4.1l.1.1v.5l-.1.1c-.1 0-.7 0-1.8-.1h-1.2c-.1 0-1.1 0-3 .1l-.1-.1v-.5l.1-.1c1 0 1.5-.1 1.7-.2.2-.1.2-.3.3-.7 0-.3 0-1.5.1-3.5v-6.8c0-.8 0-1.3-.1-1.5 0-.2-.1-.4-.2-.5-.1-.1-.2-.1-.4-.2-.2 0-.6-.1-1.4-.1l-.1-.1v-.5l.1-.1c1.7.1 2.7.1 3 .1.3 0 1.3 0 3-.1l.1.1v.5l-.1.1c-.7 0-1.1.1-1.3.1-.2 0-.3.1-.4.2-.1.1-.1.2-.2.4 0 .2-.1.7-.1 1.4v4.3z"/><path fill-rule="evenodd" clip-rule="evenodd" fill="#ED1C24" d="M0 4.6h174.4V179H0z"/><path fill-rule="evenodd" clip-rule="evenodd" fill="#FFF" d="M3 7.6h168.4V176H3z"/><path fill-rule="evenodd" clip-rule="evenodd" fill="#ED1C24" d="M5.8 10.4h162.8v162.8H5.8z"/><path fill-rule="evenodd" clip-rule="evenodd" fill="#FFF" d="M21.6 119.9c-2.2-.6-4.7-1.6-5.8-3.7-.7-1.3-1-3-.2-4.3.4-.6.9-1.1 1.5-1.5.8-.5 1.7-.8 2.7-1 2.9-.6 7.8-.2 10.7.3.4.1.7.1 1.1.2 1.1.2 2.1.4 3.1.6 1 .2 2.1.5 3.1.7 1.5.4 3.1.8 4.7 1.2 1.5.4 3.1.8 4.7 1.2l.5.1c1.3-.6 2.5-1.2 3.6-1.9 1.2-.7 2.3-1.5 3.4-2.4 1.1-.9 2.2-1.9 3.2-3s2-2.3 2.9-3.5c1.1-1.4 2.1-3 3-4.6 1-1.6 1.9-3.2 2.7-4.9 1.1-2.1 2.1-4.1 3-6.2.4-.9 1-2.4 1.6-3.8 2.7-.4 7.2-1.3 10.5-2.5-2.1 5.2-4.1 10.3-7.3 15.1-1.9 2.9-4.1 5.7-6.5 8.1-2.5 2.5-5.2 4.7-8.1 6.6-2.5 1.6-5.1 3.1-7.8 4.4 8.8 3 24.1 6 33.2-2.3.4 1.2 1.1 2.2 1.8 2.8-8.8 8.3-22.2 7.7-34.2 4.9-4.4-1-9-2.5-13.4-3.8-4-1.2-8.2-2.5-11.6-3.3-3.8-.8-9.5-1.7-9.8.6-.1 1.4 2.1 2.3 3.1 2.7 1.3.4 2.7.7 4.1.8 1.5.2 2.9.3 4.3.3 3.2 0 6.1 1.5 9.1 2.4-1.3.2-2.6.4-3.8.5-4.1.3-9.5.2-13.1-.8zm64.7-15.4c.7 6.1 2.7 10.4 9.2 12 4.5 1.1 9.7.2 15-2.3 4-1.8 8.1-5.4 10.5-9.5 2.9-4.9 3.9-11.5-1.5-15.1-5-3.4-12.2-1.7-17.7 1.9-5.5 3.6-9.4 9.9-12.4 15.7C84.9 80.6 122 66 143.7 77c5.8 2.9 8.5 6.4 9.4 12.8 1.1 8.1-2.9 17.1-8.5 20.5-1.2-.7-3.4-1.5-5.6-1.1-6.2.9-3 6.5 3.9 5.3-.6-.8-1.2-1.6-2.2-1.7-.4 0-.8-.1-1.2-.3-1.2-.4-1.5-1.2-.3-1.5.6-.1 1.3-.1 1.7 0 3.4.6 6 4.8 7 8 1.8 5.8.1 12.8-3.3 18.5-8.9 14.7-24.4 14.3-17.8-.6 3.1-7 9.5-12.7 16.9-14.6l-.3-2.8c-6.5 1.5-11.3 4.7-15.4 9.9-2.6 3.4-4.7 7.5-5.3 11.6-1 7.4 2.9 10.3 7.8 10.6 12.2.8 22.5-9.6 24-21.3.8-6.6-.9-13.7-6.3-17.7 13.8-5.3 14.5-20.8 6.2-31.7 1.3-.6 2.3-.9 3.7-1.2l-.7-2.5c-1.9.2-3.1.6-4.9 1.3-10.3-11.1-31.1-11.8-44.6-6.3-13.5 5.4-23.2 18.1-21.6 32.3zm61.9-19.2c-.6-1.3-1.4-2.3-2.5-3.1-1.2.8-2.3 1.7-3.4 2.6-9.8 8.2-16.2 19.8-22.2 31-4.8 8.9-9.5 17.5-15.6 23.6-1.2 1.2-2.5 2.4-3.9 3.4s-2.8 1.9-4.4 2.7c-2.2 1-4.5 1.8-6.9 2.3-2.3.5-4.6.8-7 .8-.9 0-1.8 0-2.6-.1-.9-.1-1.8-.2-2.7-.4-.7-.2-1.5-.4-2.2-.6l-2.1-.9c-.5-.3-1.1-.6-1.6-1s-1-.8-1.4-1.2c-.3-.4-.6-.7-.8-1.2-.2-.4-.3-.8-.4-1.3 0-.4 0-.7.1-.9.1-.3.3-.5.5-.7l.8-.7c.6-.6 1.2-1.3 1.5-2.1.4-.8.5-1.7.4-2.8-.1-.5-.2-1.1-.4-1.6s-.5-.9-.9-1.2c-.4-.4-.8-.6-1.2-.8-.5-.2-1-.3-1.4-.3-.8 0-1.4.2-2 .6-.6.4-1.1 1-1.4 1.7-.4.8-.6 1.6-.7 2.4-.1.8-.1 1.7 0 2.6.3 2.1.9 4 1.9 5.7 1 1.7 2.4 3.1 4.1 4.3 2 1.4 4.3 2.2 6.7 2.8 2.3.5 4.6.7 6.8.7 2.9 0 5.7-.3 8.5-.9 21-4.5 31.4-20.1 40.3-39.3 2.3-4.9 4.5-9.7 7.3-14.3 1.5-2.6 3.2-5.1 5.2-7.4 1-1.6 2.2-3 3.6-4.4zm-98.3-8.1c-2.8-1.2-5.3-2.9-7.5-5.1-1-1-1.9-2.1-2.7-3.3-.8-1.2-1.4-2.5-1.9-3.8-1.1-3.1-1.4-6.6-.9-9.9.3-1.9.9-3.7 1.8-5.4.9-1.9 2.1-3.6 3.3-5.1 1.3-1.5 2.7-2.9 4.3-4.1 1.8-1.4 3.7-2.6 5.7-3.6s4.1-1.9 6.2-2.6c2.4-.8 4.8-1.3 7.2-1.7 2.5-.4 5.1-.6 7.8-.6 1.5 0 2.9 0 4.4.1 1.5.1 3 .3 4.5.5 1.4.2 2.8.5 4.1.8 1.6.4 3.3.9 4.9 1.4v.4l-.1 1.7v.7c-1.5-.5-3-.9-4.6-1.2-1.2-.3-2.5-.5-3.7-.7-1.3-.2-2.6-.3-3.9-.4-1.3-.1-2.6-.1-3.9-.1-2.5 0-5 .2-7.5.5-2.3.3-4.6.9-6.8 1.6-2 .7-3.9 1.4-5.8 2.4s-3.6 2.1-5.3 3.4c-1.4 1.1-2.7 2.4-3.9 3.8-1.1 1.4-2.1 3-3 4.7-.7 1.6-1.3 3.3-1.5 5-.3 1.7-.3 3.5-.1 5.3.4 3.5 1.9 6.4 4.4 8.8 1.7 1.7 3.8 3 6 4 4.1 1.8 8.9 2.4 13.5 2.3 3-.1 5.9-.5 8.8-1.1 3.8-7.5 7.3-14.8 12.2-21.6.7-.9 1.3-1.8 2-2.6.7-.9 1.4-1.7 2-2.5 1.4-1.7 2.9-3.4 4.6-5 1.6-1.6 3.3-3 5.2-4.3.8-.6 1.7-1.1 2.6-1.6 2.8-1.5 7.3-3 9.9-.2 1 1 1.6 2.5 1.8 4.4.1.9.1 1.8 0 2.7-.1.9-.3 1.7-.5 2.6-.5 2-1.3 4-2.2 5.8-.5 1.1-1.1 2.1-1.8 3.1-.6 1-1.3 2-2 2.9-2.7 3.6-5.8 6.6-9.5 9.4-1.6 1.2-3.2 2.2-4.9 3.2-1.7 1-3.4 1.9-5.2 2.7-5.5 2.4-12.5 4.3-19.2 4.9-6.4.8-12.7.2-18.8-2.6zm51.3-33.7c1.7-1.5 3.8-3.1 6-3.7.5-.1 1-.2 1.5-.2.8 0 1.5.2 1.9.6.5.4.7 1.1.9 2.1.2 1.4 0 2.8-.4 4.2-.7 2.6-2.1 5.3-3.5 7.6-2.6 4.1-5.6 7.6-9.2 10.7-1.6 1.4-3.3 2.6-5 3.8-1.6 1.1-3.3 2.1-5 2.9-1.3.7-2.7 1.3-4 1.8.3-.7.6-1.5.9-2.2.4-1.1.9-2.2 1.3-3.3 1-2.4 2.1-4.9 3.2-7.2 1.9-3.9 4.6-8.8 7.1-12.2 1.3-1.8 2.7-3.5 4.3-4.9zm-10.5 66.9c4.3-7.5 9.8-16.8 19.1-18.9 6.2-1.4 10.3 2 9.5 7.1-.5 3.5-3.7 7.5-6.3 9.7-7 5.6-17.7 8.6-22.3 2.1z"/></svg>