<?xml version="1.0" encoding="utf-8"?>
<!-- Generator: Adobe Illustrator 17.1.0, SVG Export Plug-In . SVG Version: 6.00 Build 0)  -->
<!DOCTYPE svg PUBLIC "-//W3C//DTD SVG 1.1//EN" "http://www.w3.org/Graphics/SVG/1.1/DTD/svg11.dtd">
<svg version="1.1" id="Layer_1" xmlns="http://www.w3.org/2000/svg" xmlns:xlink="http://www.w3.org/1999/xlink" x="0px" y="0px"
	 viewBox="0 0 283.4 263" enable-background="new 0 0 283.4 263" xml:space="preserve">
<g>
	<defs>
		<rect id="SVGID_1_" width="283.4" height="263"/>
	</defs>
	<clipPath id="SVGID_2_">
		<use xlink:href="#SVGID_1_"  overflow="visible"/>
	</clipPath>
	<path clip-path="url(#SVGID_2_)" fill-rule="evenodd" clip-rule="evenodd" fill="#063445" d="M22.3,167l-7-0.1
		c0.3,5.3,11,27.5,15.9,35.3c27.3,43.3,71.9,63.7,125.2,59.1c33.3-2.9,58.8-19.6,77.4-41.5c15.3-18.1,40.3-61.9,38.3-80.6
		c-1-0.1-1.1-0.2-2.2-0.1c-0.7,0.1-1.1,0.1-1.8,0.2c-0.4,0.9-0.9,2.2-1.4,3.3c-0.5,1.1-1,1.8-1.5,3c-21.3,33.3-52.4,67.7-95.9,67.7
		c-38.5,0-52.4-13.7-68.5-34c-0.9-1.3-2.6-3-3.1-4.5c-1.1,0.1-3.7-10.1-13.2-11C62.4,161.6,32.1,158.1,22.3,167"/>
	<path clip-path="url(#SVGID_2_)" fill="none" stroke="#0C0D0D" stroke-width="2.126" stroke-miterlimit="10" d="M22.3,167l-7-0.1
		c0.3,5.3,11,27.5,15.9,35.3c27.3,43.3,71.9,63.7,125.2,59.1c33.3-2.9,58.8-19.6,77.4-41.5c15.3-18.1,40.3-61.9,38.3-80.6
		c-1-0.1-1.1-0.2-2.2-0.1c-0.7,0.1-1.1,0.1-1.8,0.2c-0.4,0.9-0.9,2.2-1.4,3.3c-0.5,1.1-1,1.8-1.5,3c-21.3,33.3-52.4,67.7-95.9,67.7
		c-38.5,0-52.4-13.7-68.5-34c-0.9-1.3-2.6-3-3.1-4.5c-1.1,0.1-3.7-10.1-13.2-11C62.4,161.6,32.1,158.1,22.3,167z"/>
	<path clip-path="url(#SVGID_2_)" fill-rule="evenodd" clip-rule="evenodd" fill="#2C6278" d="M232.7,104.7
		C178.3,2.5,68.4,7.6,13.8,112.3l9.9-4.1c60-61.3,121.3-79.6,176-3.5H232.7z"/>
	<path clip-path="url(#SVGID_2_)" fill="none" stroke="#0C0D0D" stroke-width="2.126" stroke-miterlimit="10" d="M232.7,104.7
		C178.3,2.5,68.4,7.6,13.8,112.3l9.9-4.1c60-61.3,121.3-79.6,176-3.5H232.7z"/>
	<path clip-path="url(#SVGID_2_)" fill-rule="evenodd" clip-rule="evenodd" fill="#2C6278" d="M281.8,105.5
		C221.9-28,45-40.4,10.1,108.4l3.7,3.9c48-115.7,175.9-122.4,234.4-6.9H281.8z"/>
	<path clip-path="url(#SVGID_2_)" fill="none" stroke="#0C0D0D" stroke-width="2.126" stroke-miterlimit="10" d="M281.8,105.5
		C221.9-28,45-40.4,10.1,108.4l3.7,3.9c48-115.7,175.9-122.4,234.4-6.9H281.8z"/>
	<path clip-path="url(#SVGID_2_)" fill-rule="evenodd" clip-rule="evenodd" fill="#D97C5A" d="M51.6,89.8c-0.8,1.1-1,1.9-1.6,3.3
		c-0.6,0.1-1.9,0.1-2.5,0c-1.2-0.1-0.7-0.5-1.5-1.2c-1.4,0.8-1.6,2.1-3.1,0.7c-0.5,0.8-0.8,1.1-0.7,2.3c0.1,1.1,0.5,1.7,0.5,2.8
		c-1.7,1.4-2,1.6-2.4,4c-2.1,1.1-4.8,2.3-6.2,4.4c-1.1,1.6-1.6,2.6-3.7,1c-1.7-1.3-3.3-3.1-5.6-1.8c-2.8,1.6-3.8,4.3-4.1,4.5
		c-1.2,0.2-4.1-0.3-5.5-0.4c-0.8-1-0.8-1.1-1.9-1.8c-1.6-0.9-1.1-0.4-1.2-2.4c-1-0.1-0.9,0.1-1.6,0.5c-1.1-0.5-0.4-0.5-1.9-0.4
		c-2.3,0.1-5.1,0.2-7.3,0c0.3,2.5,19.7,54.9,20.3,56.4c1.1,3.1,2.3,6.5,3.7,9c0.6,1.1,0.5,4,2.3,3.8c2.1-0.2,3.7-0.7,5.8-0.9
		c0.6-0.7,1-2.2,1.5-3c1.4-2.4,0.9-1.4,2.5-0.9c1.3-0.9,0.7-4.4,1.2-6c1-0.3,2.2,0,2.9,0.3c1.3,0.4,2.9-0.9,3.2,1
		c0,0.1,0.1,0.7,0.1,0.8c0,0.7,0,1.1,0,1.7c2.2,1.2-0.4,2.1,0.2,3.7c1-0.3,1.1-1.5,2.6-1.9c1,0.3,0.7,0.7,2.3,1.1
		c1.5,0.4,0.1,0.1,1.2-0.2c0.9-0.3,0.7-0.1,1.6-0.1c0.2-0.7,0.1-0.5,0.2-1.1c0.1-0.9-0.2-0.5,0.3-1c0.7-0.7,1.8,0.6,2.4,1
		c1,0.8,1.2,1,1.4,2.6c3.5,1.3,3.2,0.3,5.2,0c1-0.1,2.1-0.1,3.1-0.2c2-0.3,1.6-0.1,3.3,0.2c0.7-1.3,1.6-1.2,2.9-1.5
		c-0.1-1.2-0.7-1.7,0.3-2.4c2.5-1.7,1.8,0.1,4.6-1c1.6-0.6,1.4-0.2,2.8,0.1c1.9,0.3,3.3-1.6,5.4-0.9c0.7,0.2,1,1,1.6,1.6
		c2.3,2,2.1-0.1,2.6,4c0.6,0.3,1.7,0.6,2.4,1c2.2,1.3-0.3,3.6,5.9,1.1c1.1-0.5,3.8-0.3,4.3-1.6l-0.9-0.1c-0.6,0.1-0.6,0.3-1.3,0
		c-0.9-0.3-0.7-0.8-1-1.8c-0.7-0.3-1.5-0.4-1.8-1c-0.5-0.9,0-1.6-0.3-2.4c-0.3-0.7-1.3-0.6-1.6-1.2c-0.1-1.5,1.1-1.5,0.9-2.8
		c-0.1-0.9-1.1-2.2,0.5-2.9c1.4-0.6,1.5,0.8,2.6-0.6c0.5-0.8,1-1.8,1.9-2.2c1.4,0.6,0.5,1.3,1.8,1.7c-0.3-0.8-0.3-0.9-0.1-1.8
		c1.1-0.3,2.2-0.1,3.3-0.2c2-0.2,0.7,1,2.5,0.4c0-0.6,0.1-1.7,0.1-2.2c-0.1-1.3-0.4-0.4-0.8-1.5c0.1-0.3,1-2.5,1.1-2.7
		c1.2-0.1,0.9,0.3,1.9,0.7c0.6-0.2,0.9-0.7,1.2-0.8c1.2-0.5,0.3,0.3,1.4,0.2c0.6-1.2-0.6-1.7-0.9-3.4c1.5-0.9,1.2-1.6,1.8-2.8l2-0.3
		l0-1.6c-1-0.4-1.1-0.5-1.5-1.5c1.2-2.3,1.1-0.1,0.9-3.2c0.7-0.8,1.4-1.6,2.7-1.4c0.2,0.3,0.3,0.9,0.5,1.3c1.5-0.1,1.5-1.4,2.8-1.6
		c1.1-0.1,0.1,0.2,1.1,0.3c0.6-1.2-0.3-1.3-0.2-3.1c0.7-0.5,0.5-0.3,1.4-0.3c0.1-2.3-0.5-1.3-0.6-2.9c0.5-0.5,0.4-0.4,1.1-0.7
		c0.6-0.3,0.5-0.2,1.1-0.6c1.4-1.1,1.1-0.6,2.8-0.4c2.3-2.8-1.6-4.7-2-7.4c-0.1-1.1,0.4-1,0.6-1.8c0.2-0.7-0.3-0.8-0.3-1.8
		c0-0.9,0.5-1,0.9-1.5c-0.1-2,0.1-1.1-1.2-2c-0.7-0.5-1.3-0.8-2-1.2c-0.1-0.9,0.1-1.4-0.3-2c-0.3-0.6-0.8-0.7-1-1.4
		c-0.2-0.8,0-3.9,0.1-4.7c0.2-2.3-0.1-2.2-1.1-3.4c-3.6-4.2-7.2-3.9-7.1-7.3c0.1-2.7-1.8-2.9-2.5-7c-1-0.1-2.1,0.1-3.2,0.1
		c-4.2-0.2-2.6-1-5.5,2.4c-0.9,1-1.8,1.8-2.6,2.8c-1.4,1.7-0.5,1.8-3.1,2.2c-2,0.3-2.4,1.4-3.1-1c-0.7,0.1-2.2,0.6-2.6,1
		c-0.5,0.5-0.6,2.1-1,2.6c-0.3,0.4-4.2,2.1-4.8,2.1c-0.8-1.1-0.4-0.8-1.6-1.5c-1.1-0.7-0.7-0.8-1.4-1.8c-1.1,0.2-3.4,1.2-3.8,2.2
		c-0.1,0.3-0.1,0.3-0.2,0.7l-1.8,3.2c-0.4,0.8-0.8,1.5-1.1,2.3c-0.5,1-0.5,1.8-1.8,1.3c-0.5-0.5,0-1.6,0-2.3c-2.3,0.6-0.3,0-4-0.2
		c-0.8-0.1-2.4-1.2-2.9-1.8L67.4,99c-0.7-0.6-1.1-0.7-1.9-1.4c-0.9-0.9-0.8-0.8-1.7-2c-3.2,0.3-2.9-0.6-3.3-3
		c-0.2-1.5,0.8-1.1,0.3-5.6c-0.2-1.5,0.1-2-1.2-2.3c-1.1-0.2-1.5,0.2-2.1,0.7c-1.3,1.1-2.4,2.1-3.3,3.5
		C53.4,90.2,53.3,89.7,51.6,89.8"/>
	<path clip-path="url(#SVGID_2_)" fill="none" stroke="#0C0D0D" stroke-width="2.126" stroke-miterlimit="10" d="M51.6,89.8
		c-0.8,1.1-1,1.9-1.6,3.3c-0.6,0.1-1.9,0.1-2.5,0c-1.2-0.1-0.7-0.5-1.5-1.2c-1.4,0.8-1.6,2.1-3.1,0.7c-0.5,0.8-0.8,1.1-0.7,2.3
		c0.1,1.1,0.5,1.7,0.5,2.8c-1.7,1.4-2,1.6-2.4,4c-2.1,1.1-4.8,2.3-6.2,4.4c-1.1,1.6-1.6,2.6-3.7,1c-1.7-1.3-3.3-3.1-5.6-1.8
		c-2.8,1.6-3.8,4.3-4.1,4.5c-1.2,0.2-4.1-0.3-5.5-0.4c-0.8-1-0.8-1.1-1.9-1.8c-1.6-0.9-1.1-0.4-1.2-2.4c-1-0.1-0.9,0.1-1.6,0.5
		c-1.1-0.5-0.4-0.5-1.9-0.4c-2.3,0.1-5.1,0.2-7.3,0c0.3,2.5,19.7,54.9,20.3,56.4c1.1,3.1,2.3,6.5,3.7,9c0.6,1.1,0.5,4,2.3,3.8
		c2.1-0.2,3.7-0.7,5.8-0.9c0.6-0.7,1-2.2,1.5-3c1.4-2.4,0.9-1.4,2.5-0.9c1.3-0.9,0.7-4.4,1.2-6c1-0.3,2.2,0,2.9,0.3
		c1.3,0.4,2.9-0.9,3.2,1c0,0.1,0.1,0.7,0.1,0.8c0,0.7,0,1.1,0,1.7c2.2,1.2-0.4,2.1,0.2,3.7c1-0.3,1.1-1.5,2.6-1.9
		c1,0.3,0.7,0.7,2.3,1.1c1.5,0.4,0.1,0.1,1.2-0.2c0.9-0.3,0.7-0.1,1.6-0.1c0.2-0.7,0.1-0.5,0.2-1.1c0.1-0.9-0.2-0.5,0.3-1
		c0.7-0.7,1.8,0.6,2.4,1c1,0.8,1.2,1,1.4,2.6c3.5,1.3,3.2,0.3,5.2,0c1-0.1,2.1-0.1,3.1-0.2c2-0.3,1.6-0.1,3.3,0.2
		c0.7-1.3,1.6-1.2,2.9-1.5c-0.1-1.2-0.7-1.7,0.3-2.4c2.5-1.7,1.8,0.1,4.6-1c1.6-0.6,1.4-0.2,2.8,0.1c1.9,0.3,3.3-1.6,5.4-0.9
		c0.7,0.2,1,1,1.6,1.6c2.3,2,2.1-0.1,2.6,4c0.6,0.3,1.7,0.6,2.4,1c2.2,1.3-0.3,3.6,5.9,1.1c1.1-0.5,3.8-0.3,4.3-1.6l-0.9-0.1
		c-0.6,0.1-0.6,0.3-1.3,0c-0.9-0.3-0.7-0.8-1-1.8c-0.7-0.3-1.5-0.4-1.8-1c-0.5-0.9,0-1.6-0.3-2.4c-0.3-0.7-1.3-0.6-1.6-1.2
		c-0.1-1.5,1.1-1.5,0.9-2.8c-0.1-0.9-1.1-2.2,0.5-2.9c1.4-0.6,1.5,0.8,2.6-0.6c0.5-0.8,1-1.8,1.9-2.2c1.4,0.6,0.5,1.3,1.8,1.7
		c-0.3-0.8-0.3-0.9-0.1-1.8c1.1-0.3,2.2-0.1,3.3-0.2c2-0.2,0.7,1,2.5,0.4c0-0.6,0.1-1.7,0.1-2.2c-0.1-1.3-0.4-0.4-0.8-1.5
		c0.1-0.3,1-2.5,1.1-2.7c1.2-0.1,0.9,0.3,1.9,0.7c0.6-0.2,0.9-0.7,1.2-0.8c1.2-0.5,0.3,0.3,1.4,0.2c0.6-1.2-0.6-1.7-0.9-3.4
		c1.5-0.9,1.2-1.6,1.8-2.8l2-0.3l0-1.6c-1-0.4-1.1-0.5-1.5-1.5c1.2-2.3,1.1-0.1,0.9-3.2c0.7-0.8,1.4-1.6,2.7-1.4
		c0.2,0.3,0.3,0.9,0.5,1.3c1.5-0.1,1.5-1.4,2.8-1.6c1.1-0.1,0.1,0.2,1.1,0.3c0.6-1.2-0.3-1.3-0.2-3.1c0.7-0.5,0.5-0.3,1.4-0.3
		c0.1-2.3-0.5-1.3-0.6-2.9c0.5-0.5,0.4-0.4,1.1-0.7c0.6-0.3,0.5-0.2,1.1-0.6c1.4-1.1,1.1-0.6,2.8-0.4c2.3-2.8-1.6-4.7-2-7.4
		c-0.1-1.1,0.4-1,0.6-1.8c0.2-0.7-0.3-0.8-0.3-1.8c0-0.9,0.5-1,0.9-1.5c-0.1-2,0.1-1.1-1.2-2c-0.7-0.5-1.3-0.8-2-1.2
		c-0.1-0.9,0.1-1.4-0.3-2c-0.3-0.6-0.8-0.7-1-1.4c-0.2-0.8,0-3.9,0.1-4.7c0.2-2.3-0.1-2.2-1.1-3.4c-3.6-4.2-7.2-3.9-7.1-7.3
		c0.1-2.7-1.8-2.9-2.5-7c-1-0.1-2.1,0.1-3.2,0.1c-4.2-0.2-2.6-1-5.5,2.4c-0.9,1-1.8,1.8-2.6,2.8c-1.4,1.7-0.5,1.8-3.1,2.2
		c-2,0.3-2.4,1.4-3.1-1c-0.7,0.1-2.2,0.6-2.6,1c-0.5,0.5-0.6,2.1-1,2.6c-0.3,0.4-4.2,2.1-4.8,2.1c-0.8-1.1-0.4-0.8-1.6-1.5
		c-1.1-0.7-0.7-0.8-1.4-1.8c-1.1,0.2-3.4,1.2-3.8,2.2c-0.1,0.3-0.1,0.3-0.2,0.7l-1.8,3.2c-0.4,0.8-0.8,1.5-1.1,2.3
		c-0.5,1-0.5,1.8-1.8,1.3c-0.5-0.5,0-1.6,0-2.3c-2.3,0.6-0.3,0-4-0.2c-0.8-0.1-2.4-1.2-2.9-1.8L67.4,99c-0.7-0.6-1.1-0.7-1.9-1.4
		c-0.9-0.9-0.8-0.8-1.7-2c-3.2,0.3-2.9-0.6-3.3-3c-0.2-1.5,0.8-1.1,0.3-5.6c-0.2-1.5,0.1-2-1.2-2.3c-1.1-0.2-1.5,0.2-2.1,0.7
		c-1.3,1.1-2.4,2.1-3.3,3.5C53.4,90.2,53.3,89.7,51.6,89.8z"/>
	<path clip-path="url(#SVGID_2_)" fill-rule="evenodd" clip-rule="evenodd" fill="#C4D9E3" d="M57.9,172.9c-1.4-0.6-1.8,0.3-2.3-1.6
		c-0.3-1-0.7-1.6-1.8-1.8l-0.6,1.7c-1.1,0.1-1-0.3-1.8-0.1c-0.7,0.2-0.1,0.5-1.4,0.2c-1.1-0.2-2.4-0.9-3.1-0.5
		c-0.2,0.5,1.4,4.8,1.8,5.6c0.8,1.8,1.6,3.3,2.6,5.1c1.8,3.4,3.8,6.8,6.1,9.4c1.3-0.4,6.8-3.2,7.7-4.4
		C64.9,186.4,57.9,172.9,57.9,172.9"/>
	<path clip-path="url(#SVGID_2_)" fill-rule="evenodd" clip-rule="evenodd" fill="#C4D9E3" d="M65.1,200c3.2,3.6,7.2,7.7,10.5,11.3
		c2.4-1.8,4.1-3.6,6-5.2c-3.3-3.1-9.6-10.3-12.8-13.8c-2.3,1.1-4.4,2.8-6.7,3.8L65.1,200z"/>
	<path clip-path="url(#SVGID_2_)" fill-rule="evenodd" clip-rule="evenodd" fill="#C4D9E3" d="M81.8,216c8.4,6.6,12.8,8.9,19.2,12.4
		c0.4-0.7,2.3-4.2,2.5-5.2c-7.8-4.4-11.8-7.2-17.1-11.8C84.9,212.8,83.2,214.8,81.8,216"/>
	<path clip-path="url(#SVGID_2_)" fill-rule="evenodd" clip-rule="evenodd" fill="#C4D9E3" d="M132.9,234.1
		c-0.2,0.8-0.4,2.8-0.7,4.7c5.7,0.8,13,1,20.1,1.1l-0.1-4.9C144.6,235,135.1,234.5,132.9,234.1"/>
	<path clip-path="url(#SVGID_2_)" fill-rule="evenodd" clip-rule="evenodd" fill="#C4D9E3" d="M107.3,231c0,0,11.9,4.8,19.4,6.6
		l1-4.7c-4.1-1-12.4-4.2-18.3-6.5C108.7,227.6,108,229.6,107.3,231"/>
	<path clip-path="url(#SVGID_2_)" fill-rule="evenodd" clip-rule="evenodd" fill="#C4D9E3" d="M158.6,239.4
		c2.2-0.2,12.8-2.3,16.5-3.7l-0.9-4.1c-5.5,1.4-10.8,2.4-16.2,3.1L158.6,239.4z"/>
	<path clip-path="url(#SVGID_2_)" fill-rule="evenodd" clip-rule="evenodd" fill="#C4D9E3" d="M181.2,233.7c3.3-0.5,8-2.8,10.9-3.8
		c-0.5-1.2-0.9-2.2-1.2-3.1c-3.8,1.4-6.8,2.6-10.7,3.6C180.2,231.4,180.9,233,181.2,233.7"/>
	<path clip-path="url(#SVGID_2_)" fill-rule="evenodd" clip-rule="evenodd" fill="#0C0D0D" d="M95,113c1.2,0,2.2,1,2.2,2.2
		c0,1.2-1,2.2-2.2,2.2c-1.2,0-2.2-1-2.2-2.2C92.9,113.9,93.8,113,95,113"/>
	<polygon clip-path="url(#SVGID_2_)" fill="#C4D9E3" points="196,224.4 207.8,218.2 209.3,220.9 197.5,227.6 	"/>
	<path clip-path="url(#SVGID_2_)" fill="#C4D9E3" d="M213.6,214.1c12.5-10.4,27.3-24.2,37.1-37.4c-2.3,8.4-28.9,35.6-35.3,39.5
		L213.6,214.1z"/>
	<polygon clip-path="url(#SVGID_2_)" fill-rule="evenodd" clip-rule="evenodd" fill="#FFE000" points="190.7,120.2 191.3,122.1 
		193.1,122.7 191.3,123.3 190.7,125.3 190.2,123.3 188.3,122.7 190.2,122.1 	"/>
	<polygon clip-path="url(#SVGID_2_)" fill="none" stroke="#0C0D0D" stroke-width="0.283" stroke-miterlimit="10" points="
		190.7,120.2 191.3,122.1 193.1,122.7 191.3,123.3 190.7,125.3 190.2,123.3 188.3,122.7 190.2,122.1 	"/>
	<polygon clip-path="url(#SVGID_2_)" fill-rule="evenodd" clip-rule="evenodd" fill="#FFE000" points="248.1,120.1 248.6,122.1 
		250.5,122.7 248.6,123.3 248.1,125.2 247.5,123.3 245.7,122.7 247.5,122.1 	"/>
	<polygon clip-path="url(#SVGID_2_)" fill="none" stroke="#0C0D0D" stroke-width="0.283" stroke-miterlimit="10" points="
		248.1,120.1 248.6,122.1 250.5,122.7 248.6,123.3 248.1,125.2 247.5,123.3 245.7,122.7 247.5,122.1 	"/>
	<path clip-path="url(#SVGID_2_)" fill-rule="evenodd" clip-rule="evenodd" fill="#0C0D0D" d="M219,117.9v-8c0-0.8,0.7-1.4,1.4-1.4
		h3.7c0.8,0,1.4,0.7,1.4,1.4v11.1l4.8-11.6c0.2-0.5,0.7-0.9,1.3-0.9h4.1c0.8,0,1.4,0.7,1.4,1.4v25.9c0,0.8-0.6,1.4-1.4,1.4h-3.7
		c-0.8,0-1.4-0.6-1.4-1.4v-11.5l-5,12c-0.2,0.5-0.7,0.9-1.3,0.9h-3.9c-0.8,0-1.4-0.6-1.4-1.4v-17.4c0,1.2-0.3,2.4-0.5,3.6
		c-0.4,1.5-1.1,2.8-2.2,4c-1.2,1.3-2.9,1.9-4.7,1.9h-3.1v7.9c0,0.8-0.6,1.4-1.4,1.4h-3.9c-0.8,0-1.4-0.6-1.4-1.4v-25.9
		c0-0.8,0.7-1.4,1.4-1.4h8.6c1.5,0,2.8,0.4,4,1.3c1.2,0.9,2,2.2,2.5,3.5C218.8,114.7,219,116.3,219,117.9 M190.9,107.8
		c1.1,0,2.2,0.2,3.2,0.6c1.3,0.5,2.5,1.3,3.4,2.2c1.3,1.3,2.2,3,2.8,4.8c0.8,2.4,1,5,1,7.5c0,2.5-0.2,5.2-1,7.5
		c-0.6,1.7-1.5,3.5-2.8,4.7c-1,1-2.2,1.8-3.5,2.2c-1,0.3-2.1,0.6-3.1,0.6c-1,0-2.1-0.2-3.1-0.6c-1.3-0.5-2.5-1.3-3.5-2.2
		c-1.3-1.3-2.2-3-2.8-4.8c-0.8-2.4-1-5-1-7.5c0-2.5,0.2-5.2,1-7.5c0.6-1.7,1.5-3.5,2.8-4.7c1-1,2.1-1.8,3.5-2.3
		C188.8,108,189.9,107.8,190.9,107.8 M247.8,107.8c1.1,0,2.2,0.2,3.2,0.6c1.3,0.5,2.4,1.3,3.4,2.2c1.3,1.3,2.2,3,2.8,4.8
		c0.8,2.4,1,5,1,7.5c0,2.5-0.2,5.2-1,7.5c-0.6,1.7-1.5,3.5-2.8,4.7c-1,1-2.2,1.8-3.5,2.2c-1,0.3-2.1,0.6-3.1,0.6
		c-1.1,0-2.1-0.2-3.1-0.6c-1.3-0.5-2.5-1.3-3.5-2.2c-1.3-1.3-2.2-3-2.8-4.8c-0.8-2.4-1-5-1-7.5c0-2.5,0.2-5.2,1-7.5
		c0.6-1.7,1.5-3.5,2.8-4.7c1-1,2.2-1.8,3.5-2.3C245.6,108,246.7,107.8,247.8,107.8 M265.2,125.6v10.2c0,0.8-0.6,1.4-1.4,1.4h-3.9
		c-0.8,0-1.4-0.6-1.4-1.4v-25.9c0-0.8,0.7-1.4,1.4-1.4h3.9c0.8,0,1.4,0.7,1.4,1.4v8.4h4.5v-8.4c0-0.8,0.7-1.4,1.4-1.4h3.9
		c0.8,0,1.4,0.7,1.4,1.4v25.9c0,0.8-0.7,1.4-1.4,1.4h-3.9c-0.8,0-1.4-0.6-1.4-1.4v-10.2H265.2z M190.9,130.5c0.4,0,0.8-0.1,1.2-0.3
		c0.4-0.2,0.8-0.6,1.1-1c0.5-0.7,0.8-1.6,1-2.3c0.3-1.3,0.4-2.7,0.4-4c0-1.3-0.1-2.7-0.4-4c-0.2-0.8-0.5-1.7-1-2.4
		c-0.3-0.4-0.7-0.8-1.1-1c-0.4-0.2-0.8-0.3-1.2-0.3c-0.4,0-0.8,0.1-1.1,0.3c-0.5,0.2-0.8,0.6-1.1,1c-0.5,0.7-0.8,1.6-1,2.4
		c-0.3,1.3-0.4,2.7-0.4,4c0,1.3,0.1,2.7,0.4,4c0.2,0.8,0.5,1.7,1,2.3c0.3,0.4,0.7,0.8,1.1,1C190.2,130.4,190.5,130.5,190.9,130.5
		 M208.5,115.8v4.8h2.2c0.3,0,1,0,1.1-0.4c0.3-0.7,0.4-1.5,0.4-2.3c0-0.5-0.1-1.4-0.4-1.7c-0.4-0.4-1.2-0.4-1.6-0.4H208.5z
		 M247.8,130.5c0.4,0,0.8-0.1,1.1-0.3c0.5-0.2,0.9-0.6,1.1-1c0.5-0.7,0.8-1.6,1-2.3c0.3-1.3,0.4-2.7,0.4-4c0-1.3-0.1-2.7-0.4-4
		c-0.2-0.8-0.5-1.7-1-2.4c-0.3-0.4-0.7-0.8-1.1-1c-0.4-0.2-0.8-0.3-1.2-0.3c-0.4,0-0.8,0.1-1.1,0.3c-0.5,0.2-0.9,0.6-1.1,1
		c-0.5,0.7-0.8,1.6-1,2.4c-0.3,1.3-0.4,2.7-0.4,4c0,1.3,0.1,2.7,0.4,4c0.2,0.8,0.5,1.7,1,2.3c0.3,0.4,0.7,0.8,1.1,1
		C247,130.4,247.4,130.5,247.8,130.5"/>
	<path clip-path="url(#SVGID_2_)" fill="#D97C5A" d="M190.9,109.2c0.9,0,1.8,0.2,2.7,0.5c1,0.3,1.9,1,2.9,1.9c1,1,1.8,2.4,2.4,4.2
		c0.7,1.8,1,4.2,1,7c0,2.8-0.3,5.2-1,7c-0.7,1.8-1.5,3.3-2.5,4.2c-1,1-2,1.6-2.9,1.9c-1,0.3-1.9,0.5-2.7,0.5c-0.8,0-1.7-0.2-2.7-0.5
		c-1-0.3-2-1-2.9-1.9c-1-1-1.8-2.4-2.4-4.2c-0.7-1.8-1-4.2-1-7c0-2.8,0.3-5.2,1-7c0.7-1.8,1.4-3.3,2.4-4.2c1-1,2-1.6,2.9-1.9
		C189.2,109.4,190.1,109.2,190.9,109.2 M190.9,131.9c0.6,0,1.2-0.1,1.8-0.4c0.6-0.3,1.2-0.8,1.6-1.4c0.5-0.7,0.9-1.6,1.2-2.8
		c0.3-1.2,0.5-2.6,0.5-4.3c0-1.7-0.2-3.2-0.5-4.4c-0.3-1.2-0.7-2.1-1.2-2.8c-0.5-0.7-1.1-1.2-1.6-1.4c-0.6-0.3-1.2-0.4-1.8-0.4
		s-1.2,0.1-1.8,0.4c-0.6,0.3-1.1,0.8-1.6,1.5c-0.5,0.7-0.9,1.6-1.2,2.8c-0.3,1.2-0.5,2.6-0.5,4.4c0,1.7,0.1,3.2,0.5,4.3
		c0.3,1.2,0.7,2.1,1.2,2.8c0.5,0.7,1,1.2,1.6,1.4C189.8,131.7,190.3,131.9,190.9,131.9 M207.1,135.8h-3.9v-25.9h8.6
		c1.2,0,2.2,0.3,3.1,1c0.9,0.7,1.6,1.6,2,2.9c0.5,1.2,0.7,2.7,0.7,4.4c0,1-0.2,2.2-0.5,3.5c-0.3,1.2-0.9,2.4-1.8,3.3
		s-2.1,1.4-3.7,1.4h-4.5V135.8z M210.7,122c1.2,0,2.1-0.4,2.4-1.2c0.3-0.8,0.5-1.8,0.5-2.8c0-1.2-0.3-2.2-0.8-2.7
		c-0.6-0.6-1.4-0.9-2.7-0.9h-3.1v7.6H210.7z M224.1,127.9L224.1,127.9l7.5-18.1h4.1v25.9h-3.7v-18.5H232l-7.7,18.5h-3.9v-25.9h3.7
		V127.9z M247.8,109.2c0.8,0,1.7,0.2,2.7,0.5c1,0.3,2,1,2.9,1.9c1,1,1.8,2.4,2.4,4.2c0.7,1.8,1,4.2,1,7c0,2.8-0.3,5.2-1,7
		c-0.7,1.8-1.4,3.3-2.4,4.2c-1,1-2,1.6-2.9,1.9c-1,0.3-1.8,0.5-2.7,0.5c-0.8,0-1.7-0.2-2.7-0.5c-1-0.3-2-1-2.9-1.9
		c-1-1-1.8-2.4-2.5-4.2c-0.7-1.8-1-4.2-1-7c0-2.8,0.3-5.2,1-7c0.7-1.8,1.5-3.3,2.4-4.2c1-1,2-1.6,2.9-1.9
		C246,109.4,246.9,109.2,247.8,109.2 M247.8,131.9c0.6,0,1.2-0.1,1.8-0.4c0.6-0.3,1.1-0.8,1.6-1.4c0.5-0.7,0.9-1.6,1.2-2.8
		c0.3-1.2,0.5-2.6,0.5-4.3c0-1.7-0.1-3.2-0.5-4.4c-0.3-1.2-0.7-2.1-1.2-2.8c-0.5-0.7-1-1.2-1.6-1.4c-0.6-0.3-1.2-0.4-1.8-0.4
		c-0.6,0-1.2,0.1-1.8,0.4c-0.6,0.3-1.2,0.8-1.7,1.5c-0.5,0.7-0.9,1.6-1.2,2.8c-0.3,1.2-0.5,2.6-0.5,4.4c0,1.7,0.1,3.2,0.5,4.3
		c0.3,1.2,0.7,2.1,1.2,2.8c0.5,0.7,1,1.2,1.6,1.4C246.6,131.7,247.2,131.9,247.8,131.9 M263.8,124.2v11.6h-3.9v-25.9h3.9v9.8h7.3
		v-9.8h3.9v25.9h-3.9v-11.6H263.8z"/>
</g>
</svg>
