<?xml version="1.0" encoding="utf-8"?>
<!-- Generator: Adobe Illustrator 17.1.0, SVG Export Plug-In . SVG Version: 6.00 Build 0)  -->
<!DOCTYPE svg PUBLIC "-//W3C//DTD SVG 1.1//EN" "http://www.w3.org/Graphics/SVG/1.1/DTD/svg11.dtd">
<svg version="1.1" id="Layer_1" xmlns="http://www.w3.org/2000/svg" xmlns:xlink="http://www.w3.org/1999/xlink" x="0px" y="0px"
	 viewBox="105.1 141 401.9 510" enable-background="new 105.1 141 401.9 510" xml:space="preserve">
<path fill="#D22856" d="M308,141h-2l-200.9,21.4v369.2L306,651l200.9-119.3V162.4L308,141L308,141z M481.4,516.4L306,620.4
	l-175.4-104v-151l174.4,104v18.4l-119.3-71.4v18.4L306,507.2v19.4l-120.4-71.4v18.4L306,544.9l121.4-72.4V395l54.1-32.6V516.4z
	 M480.4,343l-47.9,28.6L410,384.8L305,322.6v18.4l89.8,54.1h-1l-2,1l-13.3,7.1L304,359.3v18.4l59.2,34.7l-14.3,9.2L305,395v18.4
	l29.6,17.3L305,448L131.6,345L305,241L480.4,343L480.4,343z M481.4,324.6L305,220.6l-174.4,104V185.9L306,167.5l175.4,18.4
	L481.4,324.6L481.4,324.6z"/>
</svg>
