<svg xmlns="http://www.w3.org/2000/svg" xmlns:xlink="http://www.w3.org/1999/xlink" viewBox="44 349 529 99"><defs><path id="a" d="M0 327.5h612v137.1H0z"/></defs><clipPath id="b"><use xlink:href="#a" overflow="visible"/></clipPath><path clip-path="url(#b)" fill="#FFF" d="M0 327.5h612v137H0z"/><defs><path id="c" d="M0 327.5h612v137.1H0z"/></defs><clipPath id="d"><use xlink:href="#c" overflow="visible"/></clipPath><path clip-path="url(#d)" fill="#E11837" d="M104.2 418.3l8.4 2.6 7.8-25.9z"/><defs><path id="e" d="M0 327.5h612v137.1H0z"/></defs><clipPath id="f"><use xlink:href="#e" overflow="visible"/></clipPath><path clip-path="url(#f)" fill="#E11837" d="M92 413.8l1.2.3 37.9-54.1 1.2-3.3z"/><defs><path id="g" d="M0 327.5h612v137.1H0z"/></defs><clipPath id="h"><use xlink:href="#g" overflow="visible"/></clipPath><path clip-path="url(#h)" fill="#E11837" d="M95.6 415l2.7.9 28-39.8 2.4-8.3z"/><defs><path id="i" d="M0 327.5h612v137.1H0z"/></defs><clipPath id="j"><use xlink:href="#i" overflow="visible"/></clipPath><path clip-path="url(#j)" fill="#E11837" d="M99.8 416.5l3.2 1.2 18.6-26 3.2-10.5z"/><defs><path id="k" d="M0 327.5h612v137.1H0z"/></defs><clipPath id="l"><use xlink:href="#k" overflow="visible"/></clipPath><path clip-path="url(#l)" fill="#034EA2" d="M87.5 413.8H89l41.2-58.6-3 2.4z"/><defs><path id="m" d="M0 327.5h612v137.1H0z"/></defs><clipPath id="n"><use xlink:href="#m" overflow="visible"/></clipPath><path clip-path="url(#n)" fill="#034EA2" d="M80.3 415l3.6-.6 36.8-51.7-7.2 5.4z"/><defs><path id="o" d="M0 327.5h612v137.1H0z"/></defs><clipPath id="p"><use xlink:href="#o" overflow="visible"/></clipPath><path clip-path="url(#p)" fill="#034EA2" d="M73.2 416.2l4.8-.6 31-44.2-8.9 6.8z"/><defs><path id="q" d="M0 327.5h612v137.1H0z"/></defs><clipPath id="r"><use xlink:href="#q" overflow="visible"/></clipPath><path clip-path="url(#r)" fill="#034EA2" d="M43.9 420.9l27.8-4.4 25.4-35.9z"/><defs><path id="s" d="M0 327.5h612v137.1H0z"/></defs><clipPath id="t"><use xlink:href="#s" overflow="visible"/></clipPath><path clip-path="url(#t)" fill="#034EA2" d="M517.6 382.1c1.5 2.4 1.8 8.1-.3 11.9h-13.7c1.2-2.7 1.8-6-.9-6h-6.6l-1.8 6h-19.7l5.7-17.9h29c4.1 0 7.4 3.6 8.3 6z"/><defs><path id="u" d="M0 327.5h612v137.1H0z"/></defs><clipPath id="v"><use xlink:href="#u" overflow="visible"/></clipPath><path clip-path="url(#v)" fill="#034EA2" d="M515.5 397.9c-2.7 3.3-6.3 6-12.5 6h-11.6l-4.2 13.4h-19.7l6-19.4h42z"/><defs><path id="w" d="M0 327.5h612v137.1H0z"/></defs><clipPath id="x"><use xlink:href="#w" overflow="visible"/></clipPath><path clip-path="url(#x)" fill="#034EA2" d="M416.7 376.1l1.8 18h-32.9l12.8-18z"/><defs><path id="y" d="M0 327.5h612v137.1H0z"/></defs><clipPath id="z"><use xlink:href="#y" overflow="visible"/></clipPath><path clip-path="url(#z)" fill="#034EA2" d="M419.1 397.9l2 19.5h-17l-.6-6.6h-14l-4.8 6.6h-15.8l13.7-19.5h15.8l-2 3h5.9l-.3-3z"/><defs><path id="A" d="M0 327.5h612v137.1H0z"/></defs><clipPath id="B"><use xlink:href="#A" overflow="visible"/></clipPath><path clip-path="url(#B)" fill="#034EA2" d="M142.8 376.1h40l-3.9 12.2h-10.2l-1.8 5.7h-19.7l1.8-5.7h-10.2l4-12.2zm23 21.8l-6 19.4h-19.7l6-19.4h19.7z"/><defs><path id="C" d="M0 327.5h612v137.1H0z"/></defs><clipPath id="D"><use xlink:href="#C" overflow="visible"/></clipPath><path clip-path="url(#D)" fill="#034EA2" d="M468.6 394.1h-35.2l.6-2.1h13.4c-.9-1.8-9.6-3.6-14.9-1.8l4.5-14.3c14.6-4.5 39.1-4.2 31.6 18.2z"/><defs><path id="E" d="M0 327.5h612v137.1H0z"/></defs><clipPath id="F"><use xlink:href="#E" overflow="visible"/></clipPath><path clip-path="url(#F)" fill="#034EA2" d="M467.1 397.9c-7.8 22.7-28.7 23.9-42.4 17.3l4.5-13.7c4.2 1.8 15.5 1.8 16.1-1.5h-13.7l.6-2.1h34.9z"/><defs><path id="G" d="M0 327.5h612v137.1H0z"/></defs><clipPath id="H"><use xlink:href="#G" overflow="visible"/></clipPath><path clip-path="url(#H)" fill="#034EA2" d="M377.8 376.7l-4.2 13.4c-6.9-1.5-17.6-.9-21.2 3.9h-18.5c1.8-5.1 6.3-10.8 10.8-14 7.1-6 24.5-8.3 33.1-3.3z"/><defs><path id="I" d="M0 327.5h612v137.1H0z"/></defs><clipPath id="J"><use xlink:href="#I" overflow="visible"/></clipPath><path clip-path="url(#J)" fill="#034EA2" d="M350.7 397.9c-.3 2.1.9 3.6 2.7 4.2 3.3 1.2 13.7.9 16.4-.6l-4.5 13.7c-5.7 2.1-20.9 7.5-29.3-1.5-3.6-4.2-5.7-9.3-3.9-15.8h18.6z"/><defs><path id="K" d="M0 327.5h612v137.1H0z"/></defs><clipPath id="L"><use xlink:href="#K" overflow="visible"/></clipPath><path clip-path="url(#L)" fill="#034EA2" d="M334.5 376.1l-5.7 18h-47.4l5.3-18h20l-5 15.9h8l4.8-15.9z"/><defs><path id="M" d="M0 327.5h612v137.1H0z"/></defs><clipPath id="N"><use xlink:href="#M" overflow="visible"/></clipPath><path clip-path="url(#N)" fill="#034EA2" d="M327.4 397.9l-6 19.5h-19.7L307 400h-8l-5.4 17.4h-19.7l6-19.5z"/><defs><path id="O" d="M0 327.5h612v137.1H0z"/></defs><clipPath id="P"><use xlink:href="#O" overflow="visible"/></clipPath><path clip-path="url(#P)" fill="#034EA2" d="M267 376.1l1.8 18H236l12.8-18z"/><defs><path id="Q" d="M0 327.5h612v137.1H0z"/></defs><clipPath id="R"><use xlink:href="#Q" overflow="visible"/></clipPath><path clip-path="url(#R)" fill="#034EA2" d="M269.4 397.9l2.1 19.5h-17l-.6-6.6h-14.1l-4.7 6.6h-15.9l14.1-19.5h15.5l-2.1 3h6l-.3-3z"/><defs><path id="S" d="M0 327.5h612v137.1H0z"/></defs><clipPath id="T"><use xlink:href="#S" overflow="visible"/></clipPath><path clip-path="url(#T)" fill="#034EA2" d="M226.7 382.1c1.5 2.4 1.8 8.1-.3 11.9h-13.7c1.2-2.7 1.8-6-.9-6h-6.6l-1.8 6h-19.7l5.7-17.9h29c4.4 0 7.4 3.6 8.3 6z"/><defs><path id="U" d="M0 327.5h612v137.1H0z"/></defs><clipPath id="V"><use xlink:href="#U" overflow="visible"/></clipPath><path clip-path="url(#V)" fill="#034EA2" d="M224.6 397.9c-2.7 3.3-6.3 6-12.5 6h-11.6l-4.2 13.4h-20l6-19.4h42.3z"/><defs><path id="W" d="M0 327.5h612v137.1H0z"/></defs><clipPath id="X"><use xlink:href="#W" overflow="visible"/></clipPath><path clip-path="url(#X)" fill="#034EA2" d="M537.6 419.4c-12.5 0-20-9.6-17-21.5H537c-.3 3.3 1.8 5.7 5.7 5.7 3.6 0 7.5-2.4 9.3-5.7h16.4c-4.8 12-18.2 21.5-30.8 21.5zm-15.5-25.3c4.8-11.3 17.9-20.3 30.2-20.3 12.2 0 19.4 9 17.3 20.3h-17c-.3-2.7-2.4-4.8-5.7-4.8-3.3 0-6.6 2.1-8.7 4.8h-16.1z"/><defs><path id="Y" d="M0 327.5h612v137.1H0z"/></defs><clipPath id="Z"><use xlink:href="#Y" overflow="visible"/></clipPath><path clip-path="url(#Z)" fill="#034EA2" d="M371.9 434.7c2.1.3 3.6 1.8 2.7 3.9-.9 2.4-3.6 3.6-6 3.6h-1.8c-1.5 0-3-.3-4.5-.3h-1.2c-.3 0-.3 0-.3-.3s1.2-.3 1.5-.3c.3 0 .3 0 .3-.3.3-.3.6-.6.6-.9l3.3-10.5c.3-.6 0-1.2-.6-1.2h-1.2c0-.3.6-.3 1.5-.6h5.1c1.5 0 3.6.3 4.2 1.8.6 1.2 0 2.1-.6 3-.4 1.2-1.8 1.8-3 2.1zm-3-4.5l-1.2 3.6c-.3.6-.3.9.3.9h1.8c.6 0 1.2-.3 1.8-.3.9-.6 2.1-1.5 2.4-2.7.3-.6.3-1.2 0-1.8-.3-1.2-2.1-1.5-3-1.5-.6 0-1.5 0-1.8.6 0 .3-.3.9-.3 1.2zm-3.3 10.2c-.3.6-.3 1.5.6 1.5.9.3 2.1.3 3.3 0 1.5-.3 2.7-1.8 3.3-3.3.6-1.5 0-2.7-1.5-3.3-.6 0-1.2-.3-2.1-.3h-1.5c-.3 0-.9.3-.9.9l-1.2 4.5z"/><defs><path id="aa" d="M0 327.5h612v137.1H0z"/></defs><clipPath id="ab"><use xlink:href="#aa" overflow="visible"/></clipPath><path clip-path="url(#ab)" fill="#034EA2" d="M468.6 430.5c.3-.9.3-.9-.9-1.2-.3 0-.6-.3-.3-.6 0-.3.3-.3.6-.3h13.7c.3 0 .6 0 .6.3s-.3.3-.6.3-.9 0-1.5.3c-.3.3-.3.6-.6.9l-3 9.9c-.3.6-.3 1.2.6 1.2h.6c.3 0 .3 0 .3.3s-.3.3-.6.3c-.9 0-1.2-.3-2.4-.3-.9 0-1.5.3-2.4.3-.6 0-.6 0-.6-.3s.3-.3.6-.3h.9c.9 0 1.2-.9 1.2-1.5l3.3-10.8h-7.5l-3.3 10.8c-.3.6-.3 1.2 0 1.2h1.2c.3 0 .3 0 .3.3s-.3.3-.6.3c-.9 0-1.5-.3-2.4-.3-1.2 0-1.5 0-2.7.3-.3 0-.6 0-.6-.3s.3-.3.6-.3h.9c.6 0 .9-.6 1.2-1.2l3.4-9.3z"/><defs><path id="ac" d="M0 327.5h612v137.1H0z"/></defs><clipPath id="ad"><use xlink:href="#ac" overflow="visible"/></clipPath><path clip-path="url(#ad)" fill="#034EA2" d="M536.7 435.3c-.6 0-.9.6-1.2.9l-3.9 4.5c-.6.6-.9.9-1.8.9-.3 0-.6 0-.6.3s0 .3.3.3h2.4c.6 0 .9-.9 1.2-1.2l4.2-5.1c.3-.3.9-.6 1.8-.6h.6c.3 0 .3.3.3.6l-1.5 4.5c0 .3-.3.6-.6.9-.3.3-.9 0-1.2 0-.3 0-.6 0-.6.3s0 .3.3.3c.9 0 1.5-.3 2.4-.3s1.5.3 2.4.3c.3 0 .6 0 .6-.3s0-.3-.3-.3h-.3c-.9 0-.9-.6-.9-1.2l3.3-10.5c.3-1.2.6-1.2 1.5-1.2h.6s.3 0 .3-.3 0-.3-.3-.3h-5.1c-.9 0-2.1 0-3.3.3-1.2.6-2.7 1.8-3 3-.3.6 0 1.5.3 2.1.3 1.5.9 2.1 2.1 2.1zm4.8-5.1l-1.5 4.5c0 .3-.3.3-.9.3-.9 0-1.8 0-2.4-.3-.6-.3-.6-.6-.9-1.2V432c.3-.9.6-1.5 1.5-2.1.9-.6 1.8-.9 2.7-.9h1.2c.6.3.3.9.3 1.2z"/><defs><path id="ae" d="M0 327.5h612v137.1H0z"/></defs><clipPath id="af"><use xlink:href="#ae" overflow="visible"/></clipPath><path clip-path="url(#af)" fill="#034EA2" d="M500 430.2c.3-.6-.3-.9-.9-.9-.3 0-.9 0-.9-.3s.6-.3.9-.3h4.5c.6 0 .6 0 .6.3s-.6.3-.6.3c-.3 0-.9 0-1.2.3-.3.3-.6.6-.6.9l-1.2 3.6c-.3.6-.3.9.3.9h6.6c.6 0 .6-.3.6-.9l1.2-3.6v-.6c-.3 0-.6-.3-.9-.3s-.6 0-.6-.3.3-.3.9-.3h4.5c.3 0 .6 0 .3.3 0 .3 0 .3-.3.3h-.9c-.6 0-.9.3-1.2.9l-3.3 10.5c-.3.9 0 .9.6 1.2h.6c.3 0 .3 0 .3.3s-.3.3-.9.3c-.9 0-1.5-.3-2.4-.3s-1.5.3-2.4.3c-.3 0-.6 0-.6-.3s.3-.3.6-.3h.9c.6 0 .9-.6 1.2-1.2l1.5-4.8c0-.3-.3-.6-.6-.6h-6.3c-.6 0-.9 0-.9.6l-1.5 4.8c-.3.6-.3.9.3 1.2h.6c.3 0 .9 0 .6.3 0 .3-.3.3-.6.3-.9 0-1.8-.3-2.4-.3-.9 0-1.5.3-2.4.3-.3 0-.6 0-.6-.3s.3-.3.6-.3h.9c.3 0 .9-.6.9-.9l4.2-11.1z"/><defs><path id="ag" d="M0 327.5h612v137.1H0z"/></defs><clipPath id="ah"><use xlink:href="#ag" overflow="visible"/></clipPath><path clip-path="url(#ah)" fill="#034EA2" d="M381.7 430.2c.3-.6.3-.9-.6-1.2-.3 0-.9 0-.9-.6 0 0 .3-.3.9-.3h4.2c.6 0 .6 0 .6.3s-.6.3-.9.3c-.6 0-1.5.3-1.8 1.2l-3.3 10.2 11.6-11.1c-.3-.3-.9-.3-1.2-.3-.3 0-.6-.3-.6-.3s.3-.3.9-.3h4.8c.3 0 .6 0 .6.3s-.3.3-.6.3h-.9c-.6 0-1.2.3-1.2.9l-3.3 10.5v.9c.3.3.9.3 1.5.3.3 0 .3 0 .3.3s-.3.3-.9.3c-.9 0-1.5-.3-2.4-.3s-1.8.3-2.4.3-.6 0-.6-.3.3-.3.6-.3c.6 0 1.2 0 1.8-.3 0 0 .3-.6.6-.9 0-.3 3.3-10.5 3.3-10.5l-11.6 11.1c-.3.3-.3.6.3.6h.6c.3 0 .9-.3.9.3 0 .3-.3.3-.6.3-.9 0-1.8-.3-2.4-.3-.9 0-1.5.3-2.1.3-.3 0-.6 0-.6-.3s.3-.3.6-.3c.9 0 1.2-.3 1.5-1.2l3.3-9.9z"/><defs><path id="ai" d="M0 327.5h612v137.1H0z"/></defs><clipPath id="aj"><use xlink:href="#ai" overflow="visible"/></clipPath><path clip-path="url(#aj)" fill="#034EA2" d="M400.2 437.4h-.3s-.3.3-.6.9l-1.5 2.1c0 .3-.3.3-.3.6s0 .6.6.9h1.2v.3c0 .3-.3.3-.6.3-.6 0-1.2-.3-1.8-.3-.9 0-1.5.3-2.4.3-.3 0-.6 0-.3-.3 0-.3.6-.3.9-.3s.6 0 .9-.3c.3 0 .6-.6 1.2-1.2l8.4-11.9c.3-.3.3-.6.3-.6h.3v.3l1.2 11.9c0 .6 0 .9.3.9s.6.3.9.3.6.3.3.3c0 0-.3.3-.6.3h-5.4c-.3 0-.3 0-.3-.3 0 0 0-.3.3-.3h1.5c.3 0 .3-.3.3-.6v-.9l-.3-2.4c0-.3 0-.3-.3-.6h-3.9v.6zm.9-.6h3c.3 0 .3 0 .3-.3v-.9l-.3-3.3c0-.6 0-.9-.3-.9l-.6.6-2.4 3.6c-.3.3-.3.6-.3.6s0 .3.3.3c-.3.3 0 .3.3.3z"/><defs><path id="ak" d="M0 327.5h612v137.1H0z"/></defs><clipPath id="al"><use xlink:href="#ak" overflow="visible"/></clipPath><path clip-path="url(#al)" fill="#034EA2" d="M415.5 430.2v-.9c-.3-.3-.9-.3-1.2-.3-.3 0-.3-.3-.3-.3s.3-.3.6-.3h5.1c.3 0 .6 0 .3.3 0 0 0 .3-.3.3-.6 0-.9 0-1.5.3-.3 0-.6.3-.6.9l-1.5 4.8v.3c.3 0 .3-.3.6-.3l5.7-4.5.9-.9v-.3h-.6c-.3 0-.6 0-.6-.3s.3-.3.6-.3h4.5c.3 0 .3 0 .3.3s-.3.3-.3.3h-1.5c-.6 0-1.5.6-2.4 1.2l-3.9 3c-.3.3-.6.3-.6.6 0 0 0 .3.3.6l3.3 6.3c.3.6.9 1.2 1.8 1.2 0 0 .3 0 .3.3s-.3.3-.6.3c-.9 0-1.8-.3-2.7-.3-.9 0-1.8.3-2.7.3-.3 0-.3 0-.3-.3 0 0 0-.3.3-.3.6 0 .9 0 1.5-.3s.6-.6.3-1.2l-2.1-4.5c-.3-.3-.3-.6-.3-.6s-.3-.3-.3 0l-1.5.9v.3l-1.2 4.2c0 .3 0 .6.3.9s.9 0 1.2.3c.3 0 .3 0 .3.3s-.3.3-.9.3c-.9 0-1.5-.3-2.4-.3s-1.5.3-2.1.3c-.3 0-.6 0-.6-.3s.6-.3.9-.3c.3 0 .9 0 1.2-.3.3-.3.3-.6.6-.9l2.1-10.8z"/><defs><path id="am" d="M0 327.5h612v137.1H0z"/></defs><clipPath id="an"><use xlink:href="#am" overflow="visible"/></clipPath><path clip-path="url(#an)" fill="#034EA2" d="M428.9 432.3c2.1-2.4 5.4-4.2 8.4-4.2 2.7 0 5.4 1.2 6 4.2.3 2.1-.6 4.5-1.8 6.3-1.8 2.4-5.4 4.2-8.4 4.2-2.7 0-5.4-1.5-6-4.2-.6-2.1.3-4.8 1.8-6.3zm0 6c0 2.4 1.8 3.9 4.2 3.9 2.7 0 5.1-1.8 6.3-3.9 1.2-1.8 2.1-4.5 1.5-6.6s-2.1-3-3.9-3c-2.7 0-5.1 1.5-6.6 3.6-.9 1.5-1.8 3.9-1.5 6z"/><defs><path id="ao" d="M0 327.5h612v137.1H0z"/></defs><clipPath id="ap"><use xlink:href="#ao" overflow="visible"/></clipPath><path clip-path="url(#ap)" fill="#034EA2" d="M452.2 439.2l7.2-9.6c.3-.3.6-.6.6-.9.3 0 .3-.3.6-.3h2.4c.3 0 .6 0 .6.3s-.6.3-.9.3c-.6 0-1.2.3-1.5.9l-3.3 10.5v.9c.3.6.6.3.9.3s.6 0 .3.3c0 .3-.3.3-.6.3-.9 0-1.8-.3-2.4-.3s-1.5.3-2.1.3c-.3 0-.6 0-.6-.3s.3-.3.6-.3.9 0 1.2-.3c.3 0 .6-.6.9-1.2l3.3-10.5h-.3L451 441c-.3.6-.9.9-.9 0l-.9-11.1h-.3l-3.6 9.6c-.3.6-.6 1.8.6 1.8h.9c.3 0 .3.3.3.3 0 .3-.3.3-.6.3-.6 0-1.5-.3-2.1-.3s-1.2.3-1.8.3c-.3 0-.3 0-.3-.3s.3-.3.6-.3c.9 0 1.5-.3 1.8-1.2l3.9-10.8c.3-.6-.3-.9-.9-.9-.3 0-.6 0-.6-.3s.6-.3.6-.3h2.4c.6 0 .6.6.6.9l1.5 10.5z"/><defs><path id="aq" d="M0 327.5h612v137.1H0z"/></defs><clipPath id="ar"><use xlink:href="#aq" overflow="visible"/></clipPath><path clip-path="url(#ar)" fill="#034EA2" d="M352.1 437.4h-.3s-.3.3-.6.9l-1.5 2.1c0 .3-.3.3-.3.6s0 .6.6.9h1.2v.3c0 .3-.3.3-.6.3-.6 0-1.2-.3-1.8-.3-.9 0-1.5.3-2.4.3-.3 0-.6 0-.3-.3 0-.3.6-.3.9-.3.3 0 .6 0 .9-.3.3 0 .6-.6 1.2-1.2l8.4-11.9c.3-.3.3-.6.3-.6h.3v.3l1.2 11.9c0 .6 0 .9.3.9s.6.3.9.3c.3 0 .6.3.3.3 0 0-.3.3-.6.3h-5.4c-.3 0-.3 0-.3-.3 0 0 0-.3.3-.3h1.5c.3 0 .3-.3.3-.6v-.9l-.3-2.4c0-.3 0-.3-.3-.6h-3.9v.6zm.9-.6h3c.3 0 .3 0 .3-.3v-.9l-.3-3.3c0-.6 0-.9-.3-.9l-.6.6-2.4 3.6c-.3.3-.3.6-.3.6s0 .3.3.3c-.3.3 0 .3.3.3z"/><defs><path id="as" d="M0 327.5h612v137.1H0z"/></defs><clipPath id="at"><use xlink:href="#as" overflow="visible"/></clipPath><path clip-path="url(#at)" fill="#034EA2" d="M485.7 437.4h-.3s-.3.3-.6.9l-1.5 2.1c0 .3-.3.3-.3.6s0 .6.6.9h1.2v.3c0 .3-.3.3-.6.3-.6 0-1.2-.3-1.8-.3-.9 0-1.5.3-2.4.3-.3 0-.6 0-.3-.3 0-.3.6-.3.9-.3.3 0 .6 0 .9-.3.3 0 .6-.6 1.2-1.2l8.4-11.9c.3-.3.3-.6.3-.6h.3v.3l1.2 11.9c0 .6 0 .9.3.9s.6.3.9.3.6.3.3.3c0 0-.3.3-.6.3h-5.4c-.3 0-.3 0-.3-.3 0 0 0-.3.3-.3h1.5c.3 0 .3-.3.3-.6v-.9l-.3-2.4c0-.3 0-.3-.3-.6h-3.9v.6zm.9-.6h3c.3 0 .3 0 .3-.3v-.9l-.3-3.3c0-.6 0-.9-.3-.9l-.6.6-2.4 3.6c-.3.3-.3.6-.3.6s0 .3.3.3c0 .3 0 .3.3.3z"/><defs><path id="au" d="M0 327.5h612v137.1H0z"/></defs><clipPath id="av"><use xlink:href="#au" overflow="visible"/></clipPath><path clip-path="url(#av)" fill="#034EA2" d="M517.6 430.2c.3-.6.3-.9-.6-1.2-.3 0-.9 0-.9-.6 0 0 .3-.3.9-.3h4.2c.6 0 .6 0 .6.3s-.6.3-.9.3c-.6 0-1.5.3-1.8 1.2l-3.3 10.2 11.6-11.1c-.3-.3-.9-.3-1.2-.3-.3 0-.6-.3-.6-.3s.3-.3.9-.3h4.8c.3 0 .6 0 .6.3s-.3.3-.6.3h-.9c-.6 0-1.2.3-1.2.9l-3.3 10.5v.9c.3.3.9.3 1.5.3.3 0 .3 0 .3.3s-.3.3-.9.3c-.9 0-1.5-.3-2.4-.3s-1.8.3-2.4.3-.6 0-.6-.3.3-.3.6-.3c.6 0 1.2 0 1.8-.3 0 0 .3-.6.6-.9 0-.3 3.3-10.5 3.3-10.5l-11.6 11.1c-.3.3-.3.6.3.6h.6c.3 0 .9-.3.9.3 0 .3-.3.3-.6.3-.9 0-1.8-.3-2.4-.3-.9 0-1.5.3-2.1.3-.3 0-.6 0-.6-.3s.3-.3.6-.3c.9 0 1.2-.3 1.5-1.2l3.3-9.9z"/></svg>