<svg xmlns="http://www.w3.org/2000/svg" xmlns:xlink="http://www.w3.org/1999/xlink" viewBox="0 0 283.4 263"><defs><path id="a" d="M0 0h283.4v263H0z"/></defs><clipPath id="b"><use xlink:href="#a" overflow="visible"/></clipPath><path clip-path="url(#b)" fill-rule="evenodd" clip-rule="evenodd" fill="#063445" d="M22.3 167l-7-.1c.3 5.3 11 27.5 15.9 35.3 27.3 43.3 71.9 63.7 125.2 59.1 33.3-2.9 58.8-19.6 77.4-41.5 15.3-18.1 40.3-61.9 38.3-80.6-1-.1-1.1-.2-2.2-.1-.7.1-1.1.1-1.8.2-.4.9-.9 2.2-1.4 3.3-.5 1.1-1 1.8-1.5 3-21.3 33.3-52.4 67.7-95.9 67.7-38.5 0-52.4-13.7-68.5-34-.9-1.3-2.6-3-3.1-4.5-1.1.1-3.7-10.1-13.2-11-22.1-2.2-52.4-5.7-62.2 3.2"/><path clip-path="url(#b)" fill="none" stroke="#0C0D0D" stroke-width="2.126" stroke-miterlimit="10" d="M22.3 167l-7-.1c.3 5.3 11 27.5 15.9 35.3 27.3 43.3 71.9 63.7 125.2 59.1 33.3-2.9 58.8-19.6 77.4-41.5 15.3-18.1 40.3-61.9 38.3-80.6-1-.1-1.1-.2-2.2-.1-.7.1-1.1.1-1.8.2-.4.9-.9 2.2-1.4 3.3-.5 1.1-1 1.8-1.5 3-21.3 33.3-52.4 67.7-95.9 67.7-38.5 0-52.4-13.7-68.5-34-.9-1.3-2.6-3-3.1-4.5-1.1.1-3.7-10.1-13.2-11-22.1-2.2-52.4-5.7-62.2 3.2z"/><path clip-path="url(#b)" fill-rule="evenodd" clip-rule="evenodd" fill="#2C6278" d="M232.7 104.7C178.3 2.5 68.4 7.6 13.8 112.3l9.9-4.1c60-61.3 121.3-79.6 176-3.5h33z"/><path clip-path="url(#b)" fill="none" stroke="#0C0D0D" stroke-width="2.126" stroke-miterlimit="10" d="M232.7 104.7C178.3 2.5 68.4 7.6 13.8 112.3l9.9-4.1c60-61.3 121.3-79.6 176-3.5h33z"/><path clip-path="url(#b)" fill-rule="evenodd" clip-rule="evenodd" fill="#2C6278" d="M281.8 105.5C221.9-28 45-40.4 10.1 108.4l3.7 3.9c48-115.7 175.9-122.4 234.4-6.9h33.6z"/><path clip-path="url(#b)" fill="none" stroke="#0C0D0D" stroke-width="2.126" stroke-miterlimit="10" d="M281.8 105.5C221.9-28 45-40.4 10.1 108.4l3.7 3.9c48-115.7 175.9-122.4 234.4-6.9h33.6z"/><path clip-path="url(#b)" fill-rule="evenodd" clip-rule="evenodd" fill="#D97C5A" d="M51.6 89.8c-.8 1.1-1 1.9-1.6 3.3-.6.1-1.9.1-2.5 0-1.2-.1-.7-.5-1.5-1.2-1.4.8-1.6 2.1-3.1.7-.5.8-.8 1.1-.7 2.3.1 1.1.5 1.7.5 2.8-1.7 1.4-2 1.6-2.4 4-2.1 1.1-4.8 2.3-6.2 4.4-1.1 1.6-1.6 2.6-3.7 1-1.7-1.3-3.3-3.1-5.6-1.8-2.8 1.6-3.8 4.3-4.1 4.5-1.2.2-4.1-.3-5.5-.4-.8-1-.8-1.1-1.9-1.8-1.6-.9-1.1-.4-1.2-2.4-1-.1-.9.1-1.6.5-1.1-.5-.4-.5-1.9-.4-2.3.1-5.1.2-7.3 0 .3 2.5 19.7 54.9 20.3 56.4 1.1 3.1 2.3 6.5 3.7 9 .6 1.1.5 4 2.3 3.8 2.1-.2 3.7-.7 5.8-.9.6-.7 1-2.2 1.5-3 1.4-2.4.9-1.4 2.5-.9 1.3-.9.7-4.4 1.2-6 1-.3 2.2 0 2.9.3 1.3.4 2.9-.9 3.2 1 0 .1.1.7.1.8v1.7c2.2 1.2-.4 2.1.2 3.7 1-.3 1.1-1.5 2.6-1.9 1 .3.7.7 2.3 1.1 1.5.4.1.1 1.2-.2.9-.3.7-.1 1.6-.1.2-.7.1-.5.2-1.1.1-.9-.2-.5.3-1 .7-.7 1.8.6 2.4 1 1 .8 1.2 1 1.4 2.6 3.5 1.3 3.2.3 5.2 0 1-.1 2.1-.1 3.1-.2 2-.3 1.6-.1 3.3.2.7-1.3 1.6-1.2 2.9-1.5-.1-1.2-.7-1.7.3-2.4 2.5-1.7 1.8.1 4.6-1 1.6-.6 1.4-.2 2.8.1 1.9.3 3.3-1.6 5.4-.9.7.2 1 1 1.6 1.6 2.3 2 2.1-.1 2.6 4 .6.3 1.7.6 2.4 1 2.2 1.3-.3 3.6 5.9 1.1 1.1-.5 3.8-.3 4.3-1.6l-.9-.1c-.6.1-.6.3-1.3 0-.9-.3-.7-.8-1-1.8-.7-.3-1.5-.4-1.8-1-.5-.9 0-1.6-.3-2.4-.3-.7-1.3-.6-1.6-1.2-.1-1.5 1.1-1.5.9-2.8-.1-.9-1.1-2.2.5-2.9 1.4-.6 1.5.8 2.6-.6.5-.8 1-1.8 1.9-2.2 1.4.6.5 1.3 1.8 1.7-.3-.8-.3-.9-.1-1.8 1.1-.3 2.2-.1 3.3-.2 2-.2.7 1 2.5.4 0-.6.1-1.7.1-2.2-.1-1.3-.4-.4-.8-1.5.1-.3 1-2.5 1.1-2.7 1.2-.1.9.3 1.9.7.6-.2.9-.7 1.2-.8 1.2-.5.3.3 1.4.2.6-1.2-.6-1.7-.9-3.4 1.5-.9 1.2-1.6 1.8-2.8l2-.3v-1.6c-1-.4-1.1-.5-1.5-1.5 1.2-2.3 1.1-.1.9-3.2.7-.8 1.4-1.6 2.7-1.4.2.3.3.9.5 1.3 1.5-.1 1.5-1.4 2.8-1.6 1.1-.1.1.2 1.1.3.6-1.2-.3-1.3-.2-3.1.7-.5.5-.3 1.4-.3.1-2.3-.5-1.3-.6-2.9.5-.5.4-.4 1.1-.7.6-.3.5-.2 1.1-.6 1.4-1.1 1.1-.6 2.8-.4 2.3-2.8-1.6-4.7-2-7.4-.1-1.1.4-1 .6-1.8.2-.7-.3-.8-.3-1.8 0-.9.5-1 .9-1.5-.1-2 .1-1.1-1.2-2-.7-.5-1.3-.8-2-1.2-.1-.9.1-1.4-.3-2-.3-.6-.8-.7-1-1.4-.2-.8 0-3.9.1-4.7.2-2.3-.1-2.2-1.1-3.4-3.6-4.2-7.2-3.9-7.1-7.3.1-2.7-1.8-2.9-2.5-7-1-.1-2.1.1-3.2.1-4.2-.2-2.6-1-5.5 2.4-.9 1-1.8 1.8-2.6 2.8-1.4 1.7-.5 1.8-3.1 2.2-2 .3-2.4 1.4-3.1-1-.7.1-2.2.6-2.6 1-.5.5-.6 2.1-1 2.6-.3.4-4.2 2.1-4.8 2.1-.8-1.1-.4-.8-1.6-1.5-1.1-.7-.7-.8-1.4-1.8-1.1.2-3.4 1.2-3.8 2.2-.1.3-.1.3-.2.7l-1.8 3.2c-.4.8-.8 1.5-1.1 2.3-.5 1-.5 1.8-1.8 1.3-.5-.5 0-1.6 0-2.3-2.3.6-.3 0-4-.2-.8-.1-2.4-1.2-2.9-1.8V99c-.7-.6-1.1-.7-1.9-1.4-.9-.9-.8-.8-1.7-2-3.2.3-2.9-.6-3.3-3-.2-1.5.8-1.1.3-5.6-.2-1.5.1-2-1.2-2.3-1.1-.2-1.5.2-2.1.7-1.3 1.1-2.4 2.1-3.3 3.5-.8 1.3-.9.8-2.6.9"/><path clip-path="url(#b)" fill="none" stroke="#0C0D0D" stroke-width="2.126" stroke-miterlimit="10" d="M51.6 89.8c-.8 1.1-1 1.9-1.6 3.3-.6.1-1.9.1-2.5 0-1.2-.1-.7-.5-1.5-1.2-1.4.8-1.6 2.1-3.1.7-.5.8-.8 1.1-.7 2.3.1 1.1.5 1.7.5 2.8-1.7 1.4-2 1.6-2.4 4-2.1 1.1-4.8 2.3-6.2 4.4-1.1 1.6-1.6 2.6-3.7 1-1.7-1.3-3.3-3.1-5.6-1.8-2.8 1.6-3.8 4.3-4.1 4.5-1.2.2-4.1-.3-5.5-.4-.8-1-.8-1.1-1.9-1.8-1.6-.9-1.1-.4-1.2-2.4-1-.1-.9.1-1.6.5-1.1-.5-.4-.5-1.9-.4-2.3.1-5.1.2-7.3 0 .3 2.5 19.7 54.9 20.3 56.4 1.1 3.1 2.3 6.5 3.7 9 .6 1.1.5 4 2.3 3.8 2.1-.2 3.7-.7 5.8-.9.6-.7 1-2.2 1.5-3 1.4-2.4.9-1.4 2.5-.9 1.3-.9.7-4.4 1.2-6 1-.3 2.2 0 2.9.3 1.3.4 2.9-.9 3.2 1 0 .1.1.7.1.8v1.7c2.2 1.2-.4 2.1.2 3.7 1-.3 1.1-1.5 2.6-1.9 1 .3.7.7 2.3 1.1 1.5.4.1.1 1.2-.2.9-.3.7-.1 1.6-.1.2-.7.1-.5.2-1.1.1-.9-.2-.5.3-1 .7-.7 1.8.6 2.4 1 1 .8 1.2 1 1.4 2.6 3.5 1.3 3.2.3 5.2 0 1-.1 2.1-.1 3.1-.2 2-.3 1.6-.1 3.3.2.7-1.3 1.6-1.2 2.9-1.5-.1-1.2-.7-1.7.3-2.4 2.5-1.7 1.8.1 4.6-1 1.6-.6 1.4-.2 2.8.1 1.9.3 3.3-1.6 5.4-.9.7.2 1 1 1.6 1.6 2.3 2 2.1-.1 2.6 4 .6.3 1.7.6 2.4 1 2.2 1.3-.3 3.6 5.9 1.1 1.1-.5 3.8-.3 4.3-1.6l-.9-.1c-.6.1-.6.3-1.3 0-.9-.3-.7-.8-1-1.8-.7-.3-1.5-.4-1.8-1-.5-.9 0-1.6-.3-2.4-.3-.7-1.3-.6-1.6-1.2-.1-1.5 1.1-1.5.9-2.8-.1-.9-1.1-2.2.5-2.9 1.4-.6 1.5.8 2.6-.6.5-.8 1-1.8 1.9-2.2 1.4.6.5 1.3 1.8 1.7-.3-.8-.3-.9-.1-1.8 1.1-.3 2.2-.1 3.3-.2 2-.2.7 1 2.5.4 0-.6.1-1.7.1-2.2-.1-1.3-.4-.4-.8-1.5.1-.3 1-2.5 1.1-2.7 1.2-.1.9.3 1.9.7.6-.2.9-.7 1.2-.8 1.2-.5.3.3 1.4.2.6-1.2-.6-1.7-.9-3.4 1.5-.9 1.2-1.6 1.8-2.8l2-.3v-1.6c-1-.4-1.1-.5-1.5-1.5 1.2-2.3 1.1-.1.9-3.2.7-.8 1.4-1.6 2.7-1.4.2.3.3.9.5 1.3 1.5-.1 1.5-1.4 2.8-1.6 1.1-.1.1.2 1.1.3.6-1.2-.3-1.3-.2-3.1.7-.5.5-.3 1.4-.3.1-2.3-.5-1.3-.6-2.9.5-.5.4-.4 1.1-.7.6-.3.5-.2 1.1-.6 1.4-1.1 1.1-.6 2.8-.4 2.3-2.8-1.6-4.7-2-7.4-.1-1.1.4-1 .6-1.8.2-.7-.3-.8-.3-1.8 0-.9.5-1 .9-1.5-.1-2 .1-1.1-1.2-2-.7-.5-1.3-.8-2-1.2-.1-.9.1-1.4-.3-2-.3-.6-.8-.7-1-1.4-.2-.8 0-3.9.1-4.7.2-2.3-.1-2.2-1.1-3.4-3.6-4.2-7.2-3.9-7.1-7.3.1-2.7-1.8-2.9-2.5-7-1-.1-2.1.1-3.2.1-4.2-.2-2.6-1-5.5 2.4-.9 1-1.8 1.8-2.6 2.8-1.4 1.7-.5 1.8-3.1 2.2-2 .3-2.4 1.4-3.1-1-.7.1-2.2.6-2.6 1-.5.5-.6 2.1-1 2.6-.3.4-4.2 2.1-4.8 2.1-.8-1.1-.4-.8-1.6-1.5-1.1-.7-.7-.8-1.4-1.8-1.1.2-3.4 1.2-3.8 2.2-.1.3-.1.3-.2.7l-1.8 3.2c-.4.8-.8 1.5-1.1 2.3-.5 1-.5 1.8-1.8 1.3-.5-.5 0-1.6 0-2.3-2.3.6-.3 0-4-.2-.8-.1-2.4-1.2-2.9-1.8V99c-.7-.6-1.1-.7-1.9-1.4-.9-.9-.8-.8-1.7-2-3.2.3-2.9-.6-3.3-3-.2-1.5.8-1.1.3-5.6-.2-1.5.1-2-1.2-2.3-1.1-.2-1.5.2-2.1.7-1.3 1.1-2.4 2.1-3.3 3.5-.8 1.3-.9.8-2.6.9z"/><path clip-path="url(#b)" fill-rule="evenodd" clip-rule="evenodd" fill="#C4D9E3" d="M57.9 172.9c-1.4-.6-1.8.3-2.3-1.6-.3-1-.7-1.6-1.8-1.8l-.6 1.7c-1.1.1-1-.3-1.8-.1-.7.2-.1.5-1.4.2-1.1-.2-2.4-.9-3.1-.5-.2.5 1.4 4.8 1.8 5.6.8 1.8 1.6 3.3 2.6 5.1 1.8 3.4 3.8 6.8 6.1 9.4 1.3-.4 6.8-3.2 7.7-4.4-.2-.1-7.2-13.6-7.2-13.6m7.2 27.1c3.2 3.6 7.2 7.7 10.5 11.3 2.4-1.8 4.1-3.6 6-5.2-3.3-3.1-9.6-10.3-12.8-13.8-2.3 1.1-4.4 2.8-6.7 3.8l3 3.9zm16.7 16c8.4 6.6 12.8 8.9 19.2 12.4.4-.7 2.3-4.2 2.5-5.2-7.8-4.4-11.8-7.2-17.1-11.8-1.5 1.4-3.2 3.4-4.6 4.6m51.1 18.1c-.2.8-.4 2.8-.7 4.7 5.7.8 13 1 20.1 1.1l-.1-4.9c-7.6 0-17.1-.5-19.3-.9m-25.6-3.1s11.9 4.8 19.4 6.6l1-4.7c-4.1-1-12.4-4.2-18.3-6.5-.7 1.2-1.4 3.2-2.1 4.6m51.3 8.4c2.2-.2 12.8-2.3 16.5-3.7l-.9-4.1c-5.5 1.4-10.8 2.4-16.2 3.1l.6 4.7zm22.6-5.7c3.3-.5 8-2.8 10.9-3.8-.5-1.2-.9-2.2-1.2-3.1-3.8 1.4-6.8 2.6-10.7 3.6 0 1 .7 2.6 1 3.3"/><path clip-path="url(#b)" fill-rule="evenodd" clip-rule="evenodd" fill="#0C0D0D" d="M95 113c1.2 0 2.2 1 2.2 2.2 0 1.2-1 2.2-2.2 2.2-1.2 0-2.2-1-2.2-2.2.1-1.3 1-2.2 2.2-2.2"/><path clip-path="url(#b)" fill="#C4D9E3" d="M196 224.4l11.8-6.2 1.5 2.7-11.8 6.7zm17.6-10.3c12.5-10.4 27.3-24.2 37.1-37.4-2.3 8.4-28.9 35.6-35.3 39.5l-1.8-2.1z"/><path clip-path="url(#b)" fill-rule="evenodd" clip-rule="evenodd" fill="#FFE000" d="M190.7 120.2l.6 1.9 1.8.6-1.8.6-.6 2-.5-2-1.9-.6 1.9-.6z"/><path clip-path="url(#b)" fill="none" stroke="#0C0D0D" stroke-width=".283" stroke-miterlimit="10" d="M190.7 120.2l.6 1.9 1.8.6-1.8.6-.6 2-.5-2-1.9-.6 1.9-.6z"/><path clip-path="url(#b)" fill-rule="evenodd" clip-rule="evenodd" fill="#FFE000" d="M248.1 120.1l.5 2 1.9.6-1.9.6-.5 1.9-.6-1.9-1.8-.6 1.8-.6z"/><path clip-path="url(#b)" fill="none" stroke="#0C0D0D" stroke-width=".283" stroke-miterlimit="10" d="M248.1 120.1l.5 2 1.9.6-1.9.6-.5 1.9-.6-1.9-1.8-.6 1.8-.6z"/><path clip-path="url(#b)" fill-rule="evenodd" clip-rule="evenodd" fill="#0C0D0D" d="M219 117.9v-8c0-.8.7-1.4 1.4-1.4h3.7c.8 0 1.4.7 1.4 1.4V121l4.8-11.6c.2-.5.7-.9 1.3-.9h4.1c.8 0 1.4.7 1.4 1.4v25.9c0 .8-.6 1.4-1.4 1.4H232c-.8 0-1.4-.6-1.4-1.4v-11.5l-5 12c-.2.5-.7.9-1.3.9h-3.9c-.8 0-1.4-.6-1.4-1.4v-17.4c0 1.2-.3 2.4-.5 3.6-.4 1.5-1.1 2.8-2.2 4-1.2 1.3-2.9 1.9-4.7 1.9h-3.1v7.9c0 .8-.6 1.4-1.4 1.4h-3.9c-.8 0-1.4-.6-1.4-1.4v-25.9c0-.8.7-1.4 1.4-1.4h8.6c1.5 0 2.8.4 4 1.3 1.2.9 2 2.2 2.5 3.5.5 1.4.7 3 .7 4.6m-28.1-10.1c1.1 0 2.2.2 3.2.6 1.3.5 2.5 1.3 3.4 2.2 1.3 1.3 2.2 3 2.8 4.8.8 2.4 1 5 1 7.5s-.2 5.2-1 7.5c-.6 1.7-1.5 3.5-2.8 4.7-1 1-2.2 1.8-3.5 2.2-1 .3-2.1.6-3.1.6s-2.1-.2-3.1-.6c-1.3-.5-2.5-1.3-3.5-2.2-1.3-1.3-2.2-3-2.8-4.8-.8-2.4-1-5-1-7.5s.2-5.2 1-7.5c.6-1.7 1.5-3.5 2.8-4.7 1-1 2.1-1.8 3.5-2.3 1-.3 2.1-.5 3.1-.5m56.9 0c1.1 0 2.2.2 3.2.6 1.3.5 2.4 1.3 3.4 2.2 1.3 1.3 2.2 3 2.8 4.8.8 2.4 1 5 1 7.5s-.2 5.2-1 7.5c-.6 1.7-1.5 3.5-2.8 4.7-1 1-2.2 1.8-3.5 2.2-1 .3-2.1.6-3.1.6-1.1 0-2.1-.2-3.1-.6-1.3-.5-2.5-1.3-3.5-2.2-1.3-1.3-2.2-3-2.8-4.8-.8-2.4-1-5-1-7.5s.2-5.2 1-7.5c.6-1.7 1.5-3.5 2.8-4.7 1-1 2.2-1.8 3.5-2.3.9-.3 2-.5 3.1-.5m17.4 17.8v10.2c0 .8-.6 1.4-1.4 1.4h-3.9c-.8 0-1.4-.6-1.4-1.4v-25.9c0-.8.7-1.4 1.4-1.4h3.9c.8 0 1.4.7 1.4 1.4v8.4h4.5v-8.4c0-.8.7-1.4 1.4-1.4h3.9c.8 0 1.4.7 1.4 1.4v25.9c0 .8-.7 1.4-1.4 1.4h-3.9c-.8 0-1.4-.6-1.4-1.4v-10.2h-4.5zm-74.3 4.9c.4 0 .8-.1 1.2-.3.4-.2.8-.6 1.1-1 .5-.7.8-1.6 1-2.3.3-1.3.4-2.7.4-4 0-1.3-.1-2.7-.4-4-.2-.8-.5-1.7-1-2.4-.3-.4-.7-.8-1.1-1-.4-.2-.8-.3-1.2-.3-.4 0-.8.1-1.1.3-.5.2-.8.6-1.1 1-.5.7-.8 1.6-1 2.4-.3 1.3-.4 2.7-.4 4 0 1.3.1 2.7.4 4 .2.8.5 1.7 1 2.3.3.4.7.8 1.1 1 .4.2.7.3 1.1.3m17.6-14.7v4.8h2.2c.3 0 1 0 1.1-.4.3-.7.4-1.5.4-2.3 0-.5-.1-1.4-.4-1.7-.4-.4-1.2-.4-1.6-.4h-1.7zm39.3 14.7c.4 0 .8-.1 1.1-.3.5-.2.9-.6 1.1-1 .5-.7.8-1.6 1-2.3.3-1.3.4-2.7.4-4 0-1.3-.1-2.7-.4-4-.2-.8-.5-1.7-1-2.4-.3-.4-.7-.8-1.1-1-.4-.2-.8-.3-1.2-.3-.4 0-.8.1-1.1.3-.5.2-.9.6-1.1 1-.5.7-.8 1.6-1 2.4-.3 1.3-.4 2.7-.4 4 0 1.3.1 2.7.4 4 .2.8.5 1.7 1 2.3.3.4.7.8 1.1 1 .4.2.8.3 1.2.3"/><path clip-path="url(#b)" fill="#D97C5A" d="M190.9 109.2c.9 0 1.8.2 2.7.5 1 .3 1.9 1 2.9 1.9 1 1 1.8 2.4 2.4 4.2.7 1.8 1 4.2 1 7s-.3 5.2-1 7c-.7 1.8-1.5 3.3-2.5 4.2-1 1-2 1.6-2.9 1.9-1 .3-1.9.5-2.7.5-.8 0-1.7-.2-2.7-.5-1-.3-2-1-2.9-1.9-1-1-1.8-2.4-2.4-4.2-.7-1.8-1-4.2-1-7s.3-5.2 1-7c.7-1.8 1.4-3.3 2.4-4.2 1-1 2-1.6 2.9-1.9 1.1-.3 2-.5 2.8-.5m0 22.7c.6 0 1.2-.1 1.8-.4.6-.3 1.2-.8 1.6-1.4.5-.7.9-1.6 1.2-2.8.3-1.2.5-2.6.5-4.3 0-1.7-.2-3.2-.5-4.4-.3-1.2-.7-2.1-1.2-2.8-.5-.7-1.1-1.2-1.6-1.4-.6-.3-1.2-.4-1.8-.4s-1.2.1-1.8.4c-.6.3-1.1.8-1.6 1.5s-.9 1.6-1.2 2.8c-.3 1.2-.5 2.6-.5 4.4 0 1.7.1 3.2.5 4.3.3 1.2.7 2.1 1.2 2.8.5.7 1 1.2 1.6 1.4.7.1 1.2.3 1.8.3m16.2 3.9h-3.9v-25.9h8.6c1.2 0 2.2.3 3.1 1 .9.7 1.6 1.6 2 2.9.5 1.2.7 2.7.7 4.4 0 1-.2 2.2-.5 3.5-.3 1.2-.9 2.4-1.8 3.3s-2.1 1.4-3.7 1.4h-4.5v9.4zm3.6-13.8c1.2 0 2.1-.4 2.4-1.2.3-.8.5-1.8.5-2.8 0-1.2-.3-2.2-.8-2.7-.6-.6-1.4-.9-2.7-.9H207v7.6h3.7zm13.4 5.9l7.5-18.1h4.1v25.9H232v-18.5l-7.7 18.5h-3.9v-25.9h3.7v18.1zm23.7-18.7c.8 0 1.7.2 2.7.5 1 .3 2 1 2.9 1.9 1 1 1.8 2.4 2.4 4.2.7 1.8 1 4.2 1 7s-.3 5.2-1 7c-.7 1.8-1.4 3.3-2.4 4.2-1 1-2 1.6-2.9 1.9-1 .3-1.8.5-2.7.5-.8 0-1.7-.2-2.7-.5-1-.3-2-1-2.9-1.9-1-1-1.8-2.4-2.5-4.2-.7-1.8-1-4.2-1-7s.3-5.2 1-7c.7-1.8 1.5-3.3 2.4-4.2 1-1 2-1.6 2.9-1.9 1-.3 1.9-.5 2.8-.5m0 22.7c.6 0 1.2-.1 1.8-.4.6-.3 1.1-.8 1.6-1.4.5-.7.9-1.6 1.2-2.8.3-1.2.5-2.6.5-4.3 0-1.7-.1-3.2-.5-4.4-.3-1.2-.7-2.1-1.2-2.8-.5-.7-1-1.2-1.6-1.4-.6-.3-1.2-.4-1.8-.4-.6 0-1.2.1-1.8.4-.6.3-1.2.8-1.7 1.5s-.9 1.6-1.2 2.8c-.3 1.2-.5 2.6-.5 4.4 0 1.7.1 3.2.5 4.3.3 1.2.7 2.1 1.2 2.8.5.7 1 1.2 1.6 1.4.7.1 1.3.3 1.9.3m16-7.7v11.6h-3.9v-25.9h3.9v9.8h7.3v-9.8h3.9v25.9h-3.9v-11.6h-7.3z"/></svg>